<?xml version="1.0" encoding="UTF-8"?>
<svg width="1440px" height="1024px" viewBox="0 0 1440 1024" version="1.1" xmlns="http://www.w3.org/2000/svg" xmlns:xlink="http://www.w3.org/1999/xlink">
    <!-- Generator: Sketch 58 (84663) - https://sketch.com -->
    <title>SVG/login-bg</title>
    <desc>Created with Sketch.</desc>
    <defs>
        <rect id="path-1" x="0" y="0" width="1440" height="1024"></rect>
    </defs>
    <g id="页面-1" stroke="none" stroke-width="1" fill="none" fill-rule="evenodd">
        <g id="登录-错误提示">
            <g id="login-bg">
                <mask id="mask-2" fill="white">
                    <use xlink:href="#path-1"></use>
                </mask>
                <use id="蒙版" fill="#F1FAFF" xlink:href="#path-1"></use>
                <circle id="椭圆形备份-64" fill="#E7F6FF" mask="url(#mask-2)" cx="528.5" cy="82.5" r="276.5"></circle>
                <circle id="椭圆形" stroke-opacity="0.230304851" stroke="#0068E2" stroke-linecap="square" mask="url(#mask-2)" cx="102" cy="915" r="350"></circle>
                <circle id="椭圆形" stroke-opacity="0.230304851" stroke="#0068E2" stroke-linecap="square" mask="url(#mask-2)" cx="102" cy="915" r="183"></circle>
                <circle id="椭圆形备份-63" fill="#E7F6FF" mask="url(#mask-2)" cx="1234" cy="797" r="150"></circle>
                <g id="编组-3备份" mask="url(#mask-2)" fill="#000000">
                    <g transform="translate(986.000000, 72.000000)" id="形状结合">
                        <path d="M2.3065695,392.404959 C3.58045266,392.404959 4.613139,393.434819 4.613139,394.705216 C4.613139,395.975613 3.58045266,397.005473 2.3065695,397.005473 C1.03268634,397.005473 0,395.975613 0,394.705216 C0,393.434819 1.03268634,392.404959 2.3065695,392.404959 Z M50.8029199,392.404959 C52.076803,392.404959 53.1094894,393.434819 53.1094894,394.705216 C53.1094894,395.975613 52.076803,397.005473 50.8029199,397.005473 C49.5290367,397.005473 48.4963504,395.975613 48.4963504,394.705216 C48.4963504,393.434819 49.5290367,392.404959 50.8029199,392.404959 Z M100.40146,392.404959 C101.675343,392.404959 102.70803,393.434819 102.70803,394.705216 C102.70803,395.975613 101.675343,397.005473 100.40146,397.005473 C99.1275769,397.005473 98.0948905,395.975613 98.0948905,394.705216 C98.0948905,393.434819 99.1275769,392.404959 100.40146,392.404959 Z M151.10219,392.404959 C152.376073,392.404959 153.408759,393.434819 153.408759,394.705216 C153.408759,395.975613 152.376073,397.005473 151.10219,397.005473 C149.828307,397.005473 148.79562,395.975613 148.79562,394.705216 C148.79562,393.434819 149.828307,392.404959 151.10219,392.404959 Z M199.59854,392.404959 C200.872423,392.404959 201.90511,393.434819 201.90511,394.705216 C201.90511,395.975613 200.872423,397.005473 199.59854,397.005473 C198.324657,397.005473 197.291971,395.975613 197.291971,394.705216 C197.291971,393.434819 198.324657,392.404959 199.59854,392.404959 Z M249.19708,392.404959 C250.470964,392.404959 251.50365,393.434819 251.50365,394.705216 C251.50365,395.975613 250.470964,397.005473 249.19708,397.005473 C247.923197,397.005473 246.890511,395.975613 246.890511,394.705216 C246.890511,393.434819 247.923197,392.404959 249.19708,392.404959 Z M297.693431,392.404959 C298.967314,392.404959 300,393.434819 300,394.705216 C300,395.975613 298.967314,397.005473 297.693431,397.005473 C296.419548,397.005473 295.386861,395.975613 295.386861,394.705216 C295.386861,393.434819 296.419548,392.404959 297.693431,392.404959 Z M2.3065695,344.041322 C3.58045266,344.041322 4.613139,345.071183 4.613139,346.34158 C4.613139,347.611977 3.58045266,348.641837 2.3065695,348.641837 C1.03268634,348.641837 0,347.611977 0,346.34158 C0,345.071183 1.03268634,344.041322 2.3065695,344.041322 Z M50.8029199,344.041322 C52.076803,344.041322 53.1094894,345.071183 53.1094894,346.34158 C53.1094894,347.611977 52.076803,348.641837 50.8029199,348.641837 C49.5290367,348.641837 48.4963504,347.611977 48.4963504,346.34158 C48.4963504,345.071183 49.5290367,344.041322 50.8029199,344.041322 Z M100.40146,344.041322 C101.675343,344.041322 102.70803,345.071183 102.70803,346.34158 C102.70803,347.611977 101.675343,348.641837 100.40146,348.641837 C99.1275769,348.641837 98.0948905,347.611977 98.0948905,346.34158 C98.0948905,345.071183 99.1275769,344.041322 100.40146,344.041322 Z M151.10219,344.041322 C152.376073,344.041322 153.408759,345.071183 153.408759,346.34158 C153.408759,347.611977 152.376073,348.641837 151.10219,348.641837 C149.828307,348.641837 148.79562,347.611977 148.79562,346.34158 C148.79562,345.071183 149.828307,344.041322 151.10219,344.041322 Z M199.59854,344.041322 C200.872423,344.041322 201.90511,345.071183 201.90511,346.34158 C201.90511,347.611977 200.872423,348.641837 199.59854,348.641837 C198.324657,348.641837 197.291971,347.611977 197.291971,346.34158 C197.291971,345.071183 198.324657,344.041322 199.59854,344.041322 Z M249.19708,344.041322 C250.470964,344.041322 251.50365,345.071183 251.50365,346.34158 C251.50365,347.611977 250.470964,348.641837 249.19708,348.641837 C247.923197,348.641837 246.890511,347.611977 246.890511,346.34158 C246.890511,345.071183 247.923197,344.041322 249.19708,344.041322 Z M297.693431,344.041322 C298.967314,344.041322 300,345.071183 300,346.34158 C300,347.611977 298.967314,348.641837 297.693431,348.641837 C296.419548,348.641837 295.386861,347.611977 295.386861,346.34158 C295.386861,345.071183 296.419548,344.041322 297.693431,344.041322 Z M2.3065695,294.578512 C3.58045266,294.578512 4.613139,295.608373 4.613139,296.87877 C4.613139,298.149167 3.58045266,299.179027 2.3065695,299.179027 C1.03268634,299.179027 0,298.149167 0,296.87877 C0,295.608373 1.03268634,294.578512 2.3065695,294.578512 Z M50.8029199,294.578512 C52.076803,294.578512 53.1094894,295.608373 53.1094894,296.87877 C53.1094894,298.149167 52.076803,299.179027 50.8029199,299.179027 C49.5290367,299.179027 48.4963504,298.149167 48.4963504,296.87877 C48.4963504,295.608373 49.5290367,294.578512 50.8029199,294.578512 Z M100.40146,294.578512 C101.675343,294.578512 102.70803,295.608373 102.70803,296.87877 C102.70803,298.149167 101.675343,299.179027 100.40146,299.179027 C99.1275769,299.179027 98.0948905,298.149167 98.0948905,296.87877 C98.0948905,295.608373 99.1275769,294.578512 100.40146,294.578512 Z M151.10219,294.578512 C152.376073,294.578512 153.408759,295.608373 153.408759,296.87877 C153.408759,298.149167 152.376073,299.179027 151.10219,299.179027 C149.828307,299.179027 148.79562,298.149167 148.79562,296.87877 C148.79562,295.608373 149.828307,294.578512 151.10219,294.578512 Z M199.59854,294.578512 C200.872423,294.578512 201.90511,295.608373 201.90511,296.87877 C201.90511,298.149167 200.872423,299.179027 199.59854,299.179027 C198.324657,299.179027 197.291971,298.149167 197.291971,296.87877 C197.291971,295.608373 198.324657,294.578512 199.59854,294.578512 Z M249.19708,294.578512 C250.470964,294.578512 251.50365,295.608373 251.50365,296.87877 C251.50365,298.149167 250.470964,299.179027 249.19708,299.179027 C247.923197,299.179027 246.890511,298.149167 246.890511,296.87877 C246.890511,295.608373 247.923197,294.578512 249.19708,294.578512 Z M297.693431,294.578512 C298.967314,294.578512 300,295.608373 300,296.87877 C300,298.149167 298.967314,299.179027 297.693431,299.179027 C296.419548,299.179027 295.386861,298.149167 295.386861,296.87877 C295.386861,295.608373 296.419548,294.578512 297.693431,294.578512 Z M2.3065695,246.214876 C3.58045266,246.214876 4.613139,247.244736 4.613139,248.515133 C4.613139,249.785531 3.58045266,250.815391 2.3065695,250.815391 C1.03268634,250.815391 0,249.785531 0,248.515133 C0,247.244736 1.03268634,246.214876 2.3065695,246.214876 Z M50.8029199,246.214876 C52.076803,246.214876 53.1094894,247.244736 53.1094894,248.515133 C53.1094894,249.785531 52.076803,250.815391 50.8029199,250.815391 C49.5290367,250.815391 48.4963504,249.785531 48.4963504,248.515133 C48.4963504,247.244736 49.5290367,246.214876 50.8029199,246.214876 Z M100.40146,246.214876 C101.675343,246.214876 102.70803,247.244736 102.70803,248.515133 C102.70803,249.785531 101.675343,250.815391 100.40146,250.815391 C99.1275769,250.815391 98.0948905,249.785531 98.0948905,248.515133 C98.0948905,247.244736 99.1275769,246.214876 100.40146,246.214876 Z M151.10219,246.214876 C152.376073,246.214876 153.408759,247.244736 153.408759,248.515133 C153.408759,249.785531 152.376073,250.815391 151.10219,250.815391 C149.828307,250.815391 148.79562,249.785531 148.79562,248.515133 C148.79562,247.244736 149.828307,246.214876 151.10219,246.214876 Z M199.59854,246.214876 C200.872423,246.214876 201.90511,247.244736 201.90511,248.515133 C201.90511,249.785531 200.872423,250.815391 199.59854,250.815391 C198.324657,250.815391 197.291971,249.785531 197.291971,248.515133 C197.291971,247.244736 198.324657,246.214876 199.59854,246.214876 Z M249.19708,246.214876 C250.470964,246.214876 251.50365,247.244736 251.50365,248.515133 C251.50365,249.785531 250.470964,250.815391 249.19708,250.815391 C247.923197,250.815391 246.890511,249.785531 246.890511,248.515133 C246.890511,247.244736 247.923197,246.214876 249.19708,246.214876 Z M297.693431,246.214876 C298.967314,246.214876 300,247.244736 300,248.515133 C300,249.785531 298.967314,250.815391 297.693431,250.815391 C296.419548,250.815391 295.386861,249.785531 295.386861,248.515133 C295.386861,247.244736 296.419548,246.214876 297.693431,246.214876 Z M249.19708,196.752066 C250.470964,196.752066 251.50365,197.781926 251.50365,199.052324 C251.50365,200.322721 250.470964,201.352581 249.19708,201.352581 C247.923197,201.352581 246.890511,200.322721 246.890511,199.052324 C246.890511,197.781926 247.923197,196.752066 249.19708,196.752066 Z M2.3065695,196.752066 C3.58045266,196.752066 4.613139,197.781926 4.613139,199.052324 C4.613139,200.322721 3.58045266,201.352581 2.3065695,201.352581 C1.03268634,201.352581 0,200.322721 0,199.052324 C0,197.781926 1.03268634,196.752066 2.3065695,196.752066 Z M100.40146,196.752066 C101.675343,196.752066 102.70803,197.781926 102.70803,199.052324 C102.70803,200.322721 101.675343,201.352581 100.40146,201.352581 C99.1275769,201.352581 98.0948905,200.322721 98.0948905,199.052324 C98.0948905,197.781926 99.1275769,196.752066 100.40146,196.752066 Z M199.59854,196.752066 C200.872423,196.752066 201.90511,197.781926 201.90511,199.052324 C201.90511,200.322721 200.872423,201.352581 199.59854,201.352581 C198.324657,201.352581 197.291971,200.322721 197.291971,199.052324 C197.291971,197.781926 198.324657,196.752066 199.59854,196.752066 Z M50.8029199,196.752066 C52.076803,196.752066 53.1094894,197.781926 53.1094894,199.052324 C53.1094894,200.322721 52.076803,201.352581 50.8029199,201.352581 C49.5290367,201.352581 48.4963504,200.322721 48.4963504,199.052324 C48.4963504,197.781926 49.5290367,196.752066 50.8029199,196.752066 Z M297.693431,196.752066 C298.967314,196.752066 300,197.781926 300,199.052324 C300,200.322721 298.967314,201.352581 297.693431,201.352581 C296.419548,201.352581 295.386861,200.322721 295.386861,199.052324 C295.386861,197.781926 296.419548,196.752066 297.693431,196.752066 Z M151.10219,196.752066 C152.376073,196.752066 153.408759,197.781926 153.408759,199.052324 C153.408759,200.322721 152.376073,201.352581 151.10219,201.352581 C149.828307,201.352581 148.79562,200.322721 148.79562,199.052324 C148.79562,197.781926 149.828307,196.752066 151.10219,196.752066 Z M199.59854,146.190083 C200.872423,146.190083 201.90511,147.219943 201.90511,148.49034 C201.90511,149.760737 200.872423,150.790597 199.59854,150.790597 C198.324657,150.790597 197.291971,149.760737 197.291971,148.49034 C197.291971,147.219943 198.324657,146.190083 199.59854,146.190083 Z M151.10219,146.190083 C152.376073,146.190083 153.408759,147.219943 153.408759,148.49034 C153.408759,149.760737 152.376073,150.790597 151.10219,150.790597 C149.828307,150.790597 148.79562,149.760737 148.79562,148.49034 C148.79562,147.219943 149.828307,146.190083 151.10219,146.190083 Z M2.3065695,146.190083 C3.58045266,146.190083 4.613139,147.219943 4.613139,148.49034 C4.613139,149.760737 3.58045266,150.790597 2.3065695,150.790597 C1.03268634,150.790597 0,149.760737 0,148.49034 C0,147.219943 1.03268634,146.190083 2.3065695,146.190083 Z M50.8029199,146.190083 C52.076803,146.190083 53.1094894,147.219943 53.1094894,148.49034 C53.1094894,149.760737 52.076803,150.790597 50.8029199,150.790597 C49.5290367,150.790597 48.4963504,149.760737 48.4963504,148.49034 C48.4963504,147.219943 49.5290367,146.190083 50.8029199,146.190083 Z M249.19708,146.190083 C250.470964,146.190083 251.50365,147.219943 251.50365,148.49034 C251.50365,149.760737 250.470964,150.790597 249.19708,150.790597 C247.923197,150.790597 246.890511,149.760737 246.890511,148.49034 C246.890511,147.219943 247.923197,146.190083 249.19708,146.190083 Z M297.693431,146.190083 C298.967314,146.190083 300,147.219943 300,148.49034 C300,149.760737 298.967314,150.790597 297.693431,150.790597 C296.419548,150.790597 295.386861,149.760737 295.386861,148.49034 C295.386861,147.219943 296.419548,146.190083 297.693431,146.190083 Z M100.40146,146.190083 C101.675343,146.190083 102.70803,147.219943 102.70803,148.49034 C102.70803,149.760737 101.675343,150.790597 100.40146,150.790597 C99.1275769,150.790597 98.0948905,149.760737 98.0948905,148.49034 C98.0948905,147.219943 99.1275769,146.190083 100.40146,146.190083 Z M297.693431,97.8264463 C298.967314,97.8264463 300,98.8563066 300,100.126704 C300,101.397101 298.967314,102.426961 297.693431,102.426961 C296.419548,102.426961 295.386861,101.397101 295.386861,100.126704 C295.386861,98.8563066 296.419548,97.8264463 297.693431,97.8264463 Z M2.3065695,97.8264463 C3.58045266,97.8264463 4.613139,98.8563066 4.613139,100.126704 C4.613139,101.397101 3.58045266,102.426961 2.3065695,102.426961 C1.03268634,102.426961 0,101.397101 0,100.126704 C0,98.8563066 1.03268634,97.8264463 2.3065695,97.8264463 Z M100.40146,97.8264463 C101.675343,97.8264463 102.70803,98.8563066 102.70803,100.126704 C102.70803,101.397101 101.675343,102.426961 100.40146,102.426961 C99.1275769,102.426961 98.0948905,101.397101 98.0948905,100.126704 C98.0948905,98.8563066 99.1275769,97.8264463 100.40146,97.8264463 Z M199.59854,97.8264463 C200.872423,97.8264463 201.90511,98.8563066 201.90511,100.126704 C201.90511,101.397101 200.872423,102.426961 199.59854,102.426961 C198.324657,102.426961 197.291971,101.397101 197.291971,100.126704 C197.291971,98.8563066 198.324657,97.8264463 199.59854,97.8264463 Z M50.8029199,97.8264463 C52.076803,97.8264463 53.1094894,98.8563066 53.1094894,100.126704 C53.1094894,101.397101 52.076803,102.426961 50.8029199,102.426961 C49.5290367,102.426961 48.4963504,101.397101 48.4963504,100.126704 C48.4963504,98.8563066 49.5290367,97.8264463 50.8029199,97.8264463 Z M151.10219,97.8264463 C152.376073,97.8264463 153.408759,98.8563066 153.408759,100.126704 C153.408759,101.397101 152.376073,102.426961 151.10219,102.426961 C149.828307,102.426961 148.79562,101.397101 148.79562,100.126704 C148.79562,98.8563066 149.828307,97.8264463 151.10219,97.8264463 Z M249.19708,97.8264463 C250.470964,97.8264463 251.50365,98.8563066 251.50365,100.126704 C251.50365,101.397101 250.470964,102.426961 249.19708,102.426961 C247.923197,102.426961 246.890511,101.397101 246.890511,100.126704 C246.890511,98.8563066 247.923197,97.8264463 249.19708,97.8264463 Z M2.3065695,48.3636364 C3.58045266,48.3636364 4.613139,49.3934967 4.613139,50.6638938 C4.613139,51.9342908 3.58045266,52.9641512 2.3065695,52.9641512 C1.03268634,52.9641512 0,51.9342908 0,50.6638938 C0,49.3934967 1.03268634,48.3636364 2.3065695,48.3636364 Z M50.8029199,48.3636364 C52.076803,48.3636364 53.1094894,49.3934967 53.1094894,50.6638938 C53.1094894,51.9342908 52.076803,52.9641512 50.8029199,52.9641512 C49.5290367,52.9641512 48.4963504,51.9342908 48.4963504,50.6638938 C48.4963504,49.3934967 49.5290367,48.3636364 50.8029199,48.3636364 Z M100.40146,48.3636364 C101.675343,48.3636364 102.70803,49.3934967 102.70803,50.6638938 C102.70803,51.9342908 101.675343,52.9641512 100.40146,52.9641512 C99.1275769,52.9641512 98.0948905,51.9342908 98.0948905,50.6638938 C98.0948905,49.3934967 99.1275769,48.3636364 100.40146,48.3636364 Z M151.10219,48.3636364 C152.376073,48.3636364 153.408759,49.3934967 153.408759,50.6638938 C153.408759,51.9342908 152.376073,52.9641512 151.10219,52.9641512 C149.828307,52.9641512 148.79562,51.9342908 148.79562,50.6638938 C148.79562,49.3934967 149.828307,48.3636364 151.10219,48.3636364 Z M199.59854,48.3636364 C200.872423,48.3636364 201.90511,49.3934967 201.90511,50.6638938 C201.90511,51.9342908 200.872423,52.9641512 199.59854,52.9641512 C198.324657,52.9641512 197.291971,51.9342908 197.291971,50.6638938 C197.291971,49.3934967 198.324657,48.3636364 199.59854,48.3636364 Z M249.19708,48.3636364 C250.470964,48.3636364 251.50365,49.3934967 251.50365,50.6638938 C251.50365,51.9342908 250.470964,52.9641512 249.19708,52.9641512 C247.923197,52.9641512 246.890511,51.9342908 246.890511,50.6638938 C246.890511,49.3934967 247.923197,48.3636364 249.19708,48.3636364 Z M297.693431,48.3636364 C298.967314,48.3636364 300,49.3934967 300,50.6638938 C300,51.9342908 298.967314,52.9641512 297.693431,52.9641512 C296.419548,52.9641512 295.386861,51.9342908 295.386861,50.6638938 C295.386861,49.3934967 296.419548,48.3636364 297.693431,48.3636364 Z M2.3065695,0 C3.58045266,0 4.613139,1.02986032 4.613139,2.30025739 C4.613139,3.57065447 3.58045266,4.60051479 2.3065695,4.60051479 C1.03268634,4.60051479 0,3.57065447 0,2.30025739 C0,1.02986032 1.03268634,0 2.3065695,0 Z M50.8029199,0 C52.076803,0 53.1094894,1.02986032 53.1094894,2.30025739 C53.1094894,3.57065447 52.076803,4.60051479 50.8029199,4.60051479 C49.5290367,4.60051479 48.4963504,3.57065447 48.4963504,2.30025739 C48.4963504,1.02986032 49.5290367,0 50.8029199,0 Z M100.40146,0 C101.675343,0 102.70803,1.02986032 102.70803,2.30025739 C102.70803,3.57065447 101.675343,4.60051479 100.40146,4.60051479 C99.1275769,4.60051479 98.0948905,3.57065447 98.0948905,2.30025739 C98.0948905,1.02986032 99.1275769,0 100.40146,0 Z M151.10219,0 C152.376073,0 153.408759,1.02986032 153.408759,2.30025739 C153.408759,3.57065447 152.376073,4.60051479 151.10219,4.60051479 C149.828307,4.60051479 148.79562,3.57065447 148.79562,2.30025739 C148.79562,1.02986032 149.828307,0 151.10219,0 Z M199.59854,0 C200.872423,0 201.90511,1.02986032 201.90511,2.30025739 C201.90511,3.57065447 200.872423,4.60051479 199.59854,4.60051479 C198.324657,4.60051479 197.291971,3.57065447 197.291971,2.30025739 C197.291971,1.02986032 198.324657,0 199.59854,0 Z M249.19708,0 C250.470964,0 251.50365,1.02986032 251.50365,2.30025739 C251.50365,3.57065447 250.470964,4.60051479 249.19708,4.60051479 C247.923197,4.60051479 246.890511,3.57065447 246.890511,2.30025739 C246.890511,1.02986032 247.923197,0 249.19708,0 Z M297.693431,0 C298.967314,0 300,1.02986032 300,2.30025739 C300,3.57065447 298.967314,4.60051479 297.693431,4.60051479 C296.419548,4.60051479 295.386861,3.57065447 295.386861,2.30025739 C295.386861,1.02986032 296.419548,0 297.693431,0 Z"></path>
                    </g>
                </g>
            </g>
        </g>
    </g>
</svg>