<?xml version="1.0" encoding="UTF-8"?>
<svg width="40px" height="40px" viewBox="0 0 40 40" version="1.1" xmlns="http://www.w3.org/2000/svg" xmlns:xlink="http://www.w3.org/1999/xlink">
    <!-- Generator: Sketch 58 (84663) - https://sketch.com -->
    <title>SVG/logo</title>
    <desc>Created with Sketch.</desc>
    <g id="页面-1" stroke="none" stroke-width="1" fill="none" fill-rule="evenodd">
        <g id="登录-错误提示" transform="translate(-342.000000, -322.000000)" fill="#1890FF">
            <g id="编组" transform="translate(278.000000, 250.000000)">
                <g id="logo" transform="translate(64.000000, 72.000000)">
                    <g id="Group-11">
                        <path d="M39.6382959,20.0627857 L33.0319053,26.7085 L39.6385325,33.3542143 L33.0319053,39.9999286 L26.4255148,33.3542143 L19.8191243,39.9999286 L19.8191243,20.0627857 L39.6382959,20.0627857 Z M19.8191479,0.125738095 C30.1168994,0.125738095 38.5779645,8.02692857 39.5441183,18.1312143 L39.5441183,18.1312143 L30.6021065,18.1312143 C29.6939408,12.9669286 25.2134675,9.04335714 19.8191479,9.04335714 C13.7692071,9.04335714 8.8648284,13.9769286 8.8648284,20.062881 C8.8648284,25.4819286 12.7545325,29.9838333 17.8778462,30.9062143 L17.8778462,30.9062143 L17.8778462,39.9035952 C7.84328994,38.9219286 -2.36686387e-05,30.4147857 -2.36686387e-05,20.062881 C-2.36686387e-05,9.05169048 8.87334911,0.125738095 19.8191479,0.125738095 Z" id="形状结合"></path>
                    </g>
                </g>
            </g>
        </g>
    </g>
</svg>