<?xml version="1.0" encoding="UTF-8"?>
<svg width="120px" height="40px" viewBox="0 0 120 40" version="1.1" xmlns="http://www.w3.org/2000/svg" xmlns:xlink="http://www.w3.org/1999/xlink">
    <!-- Generator: Sketch 59.1 (86144) - https://sketch.com -->
    <title>App Store Badge US Black备份</title>
    <desc>Created with Sketch.</desc>
    <g id="页面-1" stroke="none" stroke-width="1" fill="none" fill-rule="evenodd">
        <g id="桌面端-HD备份" transform="translate(-517.000000, -1210.000000)" fill-rule="nonzero">
            <g id="编组-15" transform="translate(0.000000, 1064.000000)">
                <g id="下载平台" transform="translate(230.000000, 146.000000)">
                    <g id="App-Store-Badge-US-Black备份" transform="translate(287.000000, 0.000000)">
                        <path d="M110.13477,-0.00013 L9.53468,-0.00013 C9.16798,-0.00013 8.80568,-0.00013 8.43995,0.002 C8.1338,0.004 7.83009,0.00981 7.521,0.0147 C6.84951368,0.0226018036 6.17960647,0.0816762599 5.5171,0.19141 C4.85552408,0.303532628 4.21467252,0.51491574 3.61622,0.81841 C3.01849941,1.12447171 2.47234502,1.52216753 1.99757,1.99707 C1.5203025,2.47063699 1.12246318,3.01801638 0.81935,3.61816 C0.515400242,4.21710912 0.304640498,4.8589383 0.19435,5.52148 C0.0830109412,6.18318491 0.0230983806,6.85252054 0.01515,7.52348 C0.00587,7.83008 0.00489,8.1377 0,8.44434 L0,31.5586 C0.00489,31.8691 0.00587,32.1699 0.01515,32.4805 C0.023100818,33.1514262 0.0830133796,33.8207284 0.19435,34.4824 C0.304335953,35.145329 0.515108158,35.7875266 0.81935,36.3867 C1.12232555,36.9849029 1.52022081,37.5300662 1.99757,38.001 C2.47054482,38.478014 3.01705224,38.8759804 3.61622,39.1797 C4.21466797,39.4840065 4.85545044,39.6966478 5.5171,39.8105 C6.1797191,39.9193547 6.84955741,39.9784532 7.521,39.9873 C7.83009,39.9941 8.1338,39.998 8.43995,39.998 C8.80567,40 9.168,40 9.53468,40 L110.13477,40 C110.49417,40 110.85937,40 111.21877,39.998 C111.52347,39.998 111.83597,39.9941 112.14067,39.9873 C112.810843,39.9789237 113.47942,39.9198215 114.14067,39.8105 C114.804454,39.6958464 115.447534,39.4832614 116.04887,39.1797 C116.647497,38.8758046 117.1935,38.4778491 117.66607,38.001 C118.142188,37.5282218 118.540932,36.9834573 118.84767,36.3867 C119.149629,35.7870908 119.358395,35.1449445 119.46677,34.4824 C119.578285,33.8206376 119.640323,33.1514843 119.65237,32.4805 C119.65627,32.1699 119.65627,31.8691 119.65627,31.5586 C119.66407,31.1953 119.66407,30.834 119.66407,30.4648 L119.66407,9.53613 C119.66407,9.16992 119.66407,8.80664 119.65627,8.44434 C119.65627,8.1377 119.65627,7.83008 119.65237,7.52344 C119.640326,6.85242244 119.578287,6.18323567 119.46677,5.52144 C119.358093,4.8592816 119.149339,4.21750328 118.84767,3.61812 C118.230394,2.41519608 117.251573,1.4360254 116.04887,0.81832 C115.447532,0.51556738 114.804383,0.30424041 114.14067,0.19132 C113.479535,0.0811027831 112.810888,0.0220077649 112.14067,0.01456 C111.83597,0.00968 111.52347,0.00382 111.21877,0.00187 C110.85937,-0.00013 110.49417,-0.00013 110.13477,-0.00013 L110.13477,-0.00013 Z" id="Background-Gray" fill="#A6A6A6"></path>
                        <path d="M8.44483,39.125 C8.14015,39.125 7.84283,39.1211 7.54054,39.1143 C6.91432177,39.1061407 6.28956717,39.051625 5.6714,38.9512 C5.0949903,38.8519282 4.53660424,38.6672645 4.01466,38.4033 C3.4975017,38.1415227 3.02581177,37.7982729 2.61766,37.3867 C2.20360033,36.9799753 1.85887673,36.508244 1.59715,35.9902 C1.33253926,35.4687891 1.14941288,34.9098996 1.05415,34.333 C0.951274358,33.7131149 0.895614374,33.0863132 0.88765,32.458 C0.88131,32.2471 0.87301,31.5449 0.87301,31.5449 L0.87301,8.44434 C0.87301,8.44434 0.88185,7.75293 0.8877,7.5498 C0.895325827,6.92248205 0.950662148,6.2966531 1.05323,5.67773 C1.14866872,5.09925008 1.33193687,4.53874887 1.59669,4.01563 C1.85745482,3.49794385 2.20026458,3.02586029 2.61183,2.61768 C3.02293283,2.20562142 3.49613161,1.86060412 4.01417,1.59521 C4.53491467,1.3320936 5.09224545,1.14873255 5.66749,1.05127 C6.28768733,0.949836139 6.91461084,0.894996084 7.543,0.88721 L8.44532,0.875 L111.21387,0.875 L112.12697,0.8877 C112.749643,0.895099198 113.370872,0.949450006 113.98537,1.05029 C114.566438,1.14897507 115.129577,1.33361553 115.65627,1.59814 C116.694088,2.13298605 117.538542,2.97916295 118.07127,4.01807 C118.331797,4.53757756 118.512239,5.09350676 118.60647,5.66699 C118.710259,6.29099138 118.768347,6.92173834 118.78027,7.5542 C118.78317,7.8374 118.78317,8.1416 118.78317,8.44434 C118.79107,8.81934 118.79107,9.17627 118.79107,9.53613 L118.79107,30.4648 C118.79107,30.8281 118.79107,31.1826 118.78317,31.54 C118.78317,31.8652 118.78317,32.1631 118.77927,32.4697 C118.767605,33.0908757 118.710486,33.7103642 118.60837,34.3232 C118.51506,34.9042612 118.33293,35.4675131 118.06837,35.9932 C117.804793,36.5056211 117.462049,36.9732662 117.05277,37.3789 C116.644251,37.7926846 116.171729,38.1379427 115.65337,38.4014 C115.128136,38.6673937 114.565826,38.8527403 113.98537,38.9512 C113.36725,39.052161 112.742435,39.1066802 112.11617,39.1143 C111.82327,39.1211 111.51657,39.125 111.21877,39.125 L110.13477,39.127 L8.44483,39.125 Z" id="Background-Black" fill="#000000"></path>
                        <g id="pc" transform="translate(7.000000, 10.000000)">
                            <path d="M1.41060021,0 C0.521922599,0 0,0.504993753 0,1.40495726 L0,14.7435878 C0,15.6435494 0.521922599,16.1471334 1.41060021,16.1471334 L21.1589916,16.1443122 C22.0476692,16.1443122 22.5695918,15.6393184 22.5695918,14.7393549 L22.5695918,1.40496718 C22.5695918,0.505005594 22.0476692,0 21.1589916,0 L1.41060021,0 L1.41060021,0 Z M10.4779275,14.2851455 C10.4779275,13.8351637 10.8376298,13.4740517 11.2819686,13.4740517 C11.7277172,13.4740517 12.0874214,13.8393969 12.0874214,14.2851455 L12.0874215,14.285148 C12.0905494,14.7325609 11.7307836,15.0980045 11.2833765,15.1018828 L11.2833765,15.1018828 C10.8362972,15.0972316 10.4769825,14.7322427 10.4793354,14.285146 L10.4779275,14.2851455 Z M7.05298948,17.5690291 L15.516583,17.5690291 L15.516583,19.5438682 L7.05298948,19.5438682 L7.05298948,17.5690291 Z" id="形状" fill="#FFFFFF"></path>
                            <polygon id="路径" fill="#F5F5F5" points="2.11589164 12.6954 20.4536809 12.6954 20.4536809 1.80556997 2.11589164 1.80556997"></polygon>
                        </g>
                        <path d="M37.82619,8.731 C38.6151366,8.67438418 39.3878923,8.97454743 39.9317613,9.54887182 C40.4756303,10.1231962 40.7332859,10.9111448 40.63381,11.69584 C40.63381,13.60209 39.60354,14.69784 37.82619,14.69784 L35.67092,14.69784 L35.67092,8.731 L37.82619,8.731 Z M36.59767,13.854 L37.72267,13.854 C38.2864919,13.887702 38.8354865,13.665559 39.2172185,13.2492518 C39.5989505,12.8329446 39.7727796,12.2667944 39.69044,11.708 C39.766789,11.1515245 39.5904566,10.5900462 39.2096711,10.177134 C38.8288856,9.76422175 38.2834957,9.5430863 37.72267,9.57421 L36.59767,9.57421 L36.59767,13.854 Z M41.68068,12.44434 C41.6034671,11.6372251 41.9904837,10.8561119 42.6794159,10.4285974 C43.3683482,10.0010828 44.2400818,10.0010828 44.9290141,10.4285974 C45.6179463,10.8561119 46.0049629,11.6372251 45.92775,12.44434 C46.0064319,13.2523223 45.6197687,14.0349504 44.9302255,14.4633853 C44.2406824,14.8918202 43.3677476,14.8918202 42.6782045,14.4633853 C41.9886613,14.0349504 41.6019981,13.2523223 41.68068,12.44434 Z M45.01369,12.44434 C45.01369,11.46827 44.5752,10.89747 43.80568,10.89747 C43.03322,10.89747 42.59868,11.46827 42.59868,12.44435 C42.59868,13.42824 43.03325,13.99464 43.80568,13.99464 C44.57522,13.99464 45.01369,13.42432 45.01369,12.44434 L45.01369,12.44434 Z M51.57326,14.69775 L50.65139,14.69775 L49.72073,11.38134 L49.65042,11.38134 L48.72366,14.69775 L47.81057,14.69775 L46.56936,10.19482 L47.47073,10.19482 L48.27737,13.63082 L48.34378,13.63082 L49.26956,10.19482 L50.1221,10.19482 L51.04788,13.63082 L51.11819,13.63082 L51.92092,10.19482 L52.80959,10.19482 L51.57326,14.69775 Z M53.85353,10.19482 L54.709,10.19482 L54.709,10.91015 L54.77541,10.91015 C55.0063449,10.3834779 55.5459729,10.0613075 56.11916,10.1079 C56.5629768,10.0745318 56.9978859,10.2447899 57.3010908,10.5706021 C57.6042957,10.8964142 57.7428931,11.3424238 57.67775,11.7827 L57.67775,14.6977 L56.78908,14.6977 L56.78908,12.00586 C56.78908,11.28223 56.47463,10.92236 55.8174,10.92236 C55.5163658,10.9083391 55.2242202,11.0264826 55.0175546,11.2458168 C54.810889,11.465151 54.710315,11.763801 54.7422,12.06347 L54.7422,14.69775 L53.85353,14.69775 L53.85353,10.19482 Z M59.09377,8.437 L59.98244,8.437 L59.98244,14.69774 L59.09377,14.69774 L59.09377,8.437 Z M61.21779,12.44434 C61.1406364,11.6371722 61.527714,10.8560394 62.2166974,10.4285182 C62.9056808,10.000997 63.7774592,10.000997 64.4664426,10.4285182 C65.155426,10.8560394 65.5425036,11.6371722 65.46535,12.44434 C65.543932,13.2523512 65.1571979,14.0349572 64.4676205,14.4633732 C63.7780432,14.8917893 62.9050968,14.8917893 62.2155195,14.4633732 C61.5259421,14.0349572 61.139208,13.2523512 61.21779,12.44434 L61.21779,12.44434 Z M64.5508,12.44434 C64.5508,11.46827 64.11231,10.89747 63.34279,10.89747 C62.57033,10.89747 62.13579,11.46827 62.13579,12.44435 C62.13579,13.42824 62.57036,13.99464 63.34279,13.99464 C64.11232,13.99464 64.5508,13.42432 64.5508,12.44434 L64.5508,12.44434 Z M66.4009,13.42432 C66.4009,12.61377 67.00442,12.14649 68.0757,12.08008 L69.29543,12.00977 L69.29543,11.6211 C69.29543,11.14551 68.98098,10.87696 68.37356,10.87696 C67.87747,10.87696 67.53372,11.05909 67.43508,11.37745 L66.57473,11.37745 C66.66555,10.60401 67.39309,10.10792 68.41457,10.10792 C69.54348,10.10792 70.1802,10.66992 70.1802,11.6211 L70.1802,14.69776 L69.32473,14.69776 L69.32473,14.06495 L69.25442,14.06495 C68.9638686,14.5270763 68.4471736,14.7971632 67.90188,14.77195 C67.5196161,14.8117118 67.1383711,14.6879107 66.8523958,14.4311524 C66.5664205,14.1743942 66.4024061,13.8086433 66.4009,13.42432 L66.4009,13.42432 Z M69.29543,13.03955 L69.29543,12.66309 L68.19582,12.7334 C67.5757,12.7749 67.29445,12.98584 67.29445,13.38281 C67.29445,13.78808 67.64601,14.02392 68.12945,14.02392 C68.4156361,14.0528899 68.7013264,13.9644751 68.9211204,13.7789156 C69.1409144,13.5933561 69.2759916,13.3265411 69.29543,13.03955 Z M71.34816,12.44434 C71.34816,11.02149 72.07961,10.12012 73.2173,10.12012 C73.7917768,10.0936501 74.3298275,10.4014729 74.59816,10.91012 L74.66457,10.91012 L74.66457,8.437 L75.55324,8.437 L75.55324,14.69774 L74.70168,14.69774 L74.70168,13.98631 L74.63137,13.98631 C74.3427542,14.490737 73.7980745,14.7933565 73.21731,14.77195 C72.0718,14.772 71.34816,13.87061 71.34816,12.44434 Z M72.26616,12.44434 C72.26616,13.39942 72.71636,13.97413 73.46929,13.97413 C74.21829,13.97413 74.6812,13.39113 74.6812,12.44825 C74.6812,11.50977 74.21343,10.91846 73.46929,10.91846 C72.72121,10.91846 72.26613,11.49707 72.26613,12.44434 L72.26616,12.44434 Z M81.60449,9.07373 L81.60449,10.21533 L82.58008,10.21533 L82.58008,10.96387 L81.60449,10.96387 L81.60449,13.2793 C81.60449,13.75098 81.79883,13.95752 82.24121,13.95752 C82.3544656,13.9571575 82.4676075,13.9503097 82.58008,13.93701 L82.58008,14.67724 C82.4204895,14.7057907 82.2587956,14.72098 82.09668,14.72265 C81.1084,14.72265 80.71484,14.37499 80.71484,13.50683 L80.71484,10.96383 L80,10.96383 L80,10.21529 L80.71484,10.21529 L80.71484,9.07373 L81.60449,9.07373 Z M83.79394,8.437 L84.6748,8.437 L84.6748,10.91845 L84.74511,10.91845 C84.9871378,10.3871686 85.5362101,10.0645875 86.11811,10.11181 C86.5594066,10.0877973 86.9884283,10.2618037 87.2883193,10.5864339 C87.5882102,10.911064 87.7277349,11.3525056 87.66889,11.79052 L87.66889,14.69775 L86.77933,14.69775 L86.77933,12.00975 C86.77933,11.29051 86.44433,10.92625 85.81644,10.92625 C85.507269,10.9008937 85.2026691,11.013291 84.9840723,11.2333935 C84.7654756,11.453496 84.6551719,11.7588603 84.68265,12.06785 L84.68265,14.69775 L83.79398,14.69775 L83.79394,8.437 Z M92.85058,13.48193 C92.601387,14.3313095 91.7794289,14.880103 90.89941,14.78466 C90.2989739,14.8005102 89.7219214,14.5516307 89.3213582,14.1040552 C88.9207951,13.6564796 88.7372164,13.0554559 88.81933,12.46045 C88.7393974,11.8637905 88.9222882,11.2618037 89.3206208,10.810447 C89.7189534,10.3590902 90.293532,10.1027768 90.8955,10.10791 C92.14843,10.10791 92.90429,10.96391 92.90429,12.37791 L92.90429,12.688 L89.7246,12.688 L89.7246,12.7378 C89.696462,13.0719401 89.8105807,13.4024478 90.0388908,13.6480407 C90.2672009,13.8936336 90.5885179,14.0315239 90.92382,14.0278 C91.3585919,14.0799947 91.7818125,13.864333 91.99511,13.4819 L92.85058,13.48193 Z M89.72458,12.03076 L91.99899,12.03076 C92.0216429,11.7251604 91.9141885,11.4242051 91.7031069,11.2020591 C91.4920254,10.9799131 91.1969475,10.8572362 90.89059,10.86426 C90.580082,10.8603589 90.281158,10.9820212 90.0616263,11.2016489 C89.8420947,11.4212765 89.7205631,11.7202537 89.7246,12.03076 L89.72458,12.03076 Z" id="Download-on-the" fill="#FFFFFF"></path>
                        <path d="M36,18.224 L36,29.648 L37.744,29.648 L37.744,25.2 L40.704,25.2 C43.44,25.2 44.816,24.032 44.816,21.696 C44.816,19.376 43.456,18.224 40.736,18.224 L36,18.224 Z M37.744,19.712 L40.592,19.712 C41.44,19.712 42.064,19.872 42.464,20.192 C42.864,20.48 43.072,20.992 43.072,21.696 C43.072,22.4 42.864,22.912 42.48,23.232 C42.08,23.552 41.456,23.712 40.592,23.712 L37.744,23.712 L37.744,19.712 Z M51.392,18 C49.568,18 48.192,18.592 47.232,19.808 C46.368,20.88 45.952,22.256 45.952,23.952 C45.952,25.68 46.352,27.056 47.184,28.08 C48.128,29.264 49.536,29.872 51.408,29.872 C52.64,29.872 53.696,29.52 54.576,28.816 C55.52,28.064 56.112,27.024 56.368,25.696 L54.672,25.696 C54.448,26.592 54.048,27.264 53.472,27.712 C52.928,28.128 52.224,28.336 51.392,28.336 C50.112,28.336 49.168,27.936 48.56,27.136 C47.984,26.384 47.696,25.328 47.696,23.952 C47.696,22.624 47.984,21.568 48.576,20.8 C49.2,19.952 50.128,19.536 51.36,19.536 C52.192,19.536 52.864,19.712 53.408,20.08 C53.952,20.448 54.32,21.024 54.512,21.792 L56.208,21.792 C56.032,20.64 55.52,19.712 54.688,19.04 C53.824,18.336 52.72,18 51.392,18 Z M62.416,18.224 L65.696,29.648 L67.568,29.648 L69.888,20.832 L69.952,20.832 L72.272,29.648 L74.128,29.648 L77.424,18.224 L75.456,18.224 L73.232,27.12 L73.168,27.12 L70.832,18.224 L69.008,18.224 L66.672,27.12 L66.608,27.12 L64.384,18.224 L62.416,18.224 Z M82.192,21.152 C81.168,21.152 80.336,21.328 79.728,21.712 C79.024,22.128 78.576,22.8 78.4,23.696 L80.08,23.84 C80.176,23.376 80.416,23.04 80.8,22.816 C81.12,22.624 81.552,22.528 82.08,22.528 C83.328,22.528 83.952,23.104 83.952,24.256 L83.952,24.592 L82.096,24.64 C80.88,24.672 79.92,24.912 79.248,25.392 C78.512,25.888 78.144,26.608 78.144,27.536 C78.144,28.224 78.4,28.784 78.928,29.216 C79.408,29.648 80.08,29.872 80.944,29.872 C81.68,29.872 82.32,29.728 82.864,29.472 C83.344,29.232 83.744,28.896 84.064,28.48 L84.064,29.648 L85.632,29.648 L85.632,24.368 C85.632,23.36 85.376,22.592 84.88,22.064 C84.304,21.456 83.408,21.152 82.192,21.152 Z M83.952,25.824 L83.952,26.304 C83.952,26.944 83.68,27.488 83.168,27.92 C82.656,28.352 82.048,28.576 81.328,28.576 C80.896,28.576 80.544,28.464 80.288,28.256 C80.016,28.048 79.888,27.792 79.888,27.472 C79.888,26.4945455 80.5877686,25.9544463 82.0012216,25.8795342 L83.952,25.824 Z M87.76,18 L87.76,29.648 L89.456,29.648 L89.456,18 L87.76,18 Z M91.76,18 L91.76,29.648 L93.456,29.648 L93.456,18 L91.76,18 Z M99.072,21.152 C97.856,21.152 96.88,21.568 96.176,22.416 C95.44,23.248 95.088,24.272 95.088,25.504 C95.088,26.864 95.472,27.936 96.24,28.736 C96.944,29.488 97.92,29.872 99.136,29.872 C100.24,29.872 101.152,29.552 101.872,28.928 C102.448,28.416 102.816,27.76 103.008,26.992 L101.312,26.992 C101.088,27.472 100.848,27.84 100.56,28.064 C100.192,28.336 99.712,28.48 99.12,28.48 C98.448,28.48 97.92,28.256 97.536,27.84 C97.152,27.408 96.944,26.784 96.88,25.984 L103.152,25.984 C103.136,24.512 102.8,23.36 102.16,22.528 C101.456,21.6 100.416,21.152 99.072,21.152 Z M99.12,22.544 C100.464,22.544 101.216,23.264 101.376,24.704 L96.912,24.704 C97.008,24 97.248,23.472 97.6,23.104 C97.984,22.72 98.48,22.544 99.12,22.544 Z M107.104,18.704 L107.104,21.376 L108.992,21.376 L108.992,22.784 L107.104,22.784 L107.104,27.584 C107.104,27.808 107.152,27.968 107.248,28.08 C107.344,28.176 107.488,28.24 107.696,28.24 L108.784,28.24 L108.784,29.648 L107.424,29.648 C106.72,29.648 106.192,29.456 105.872,29.088 C105.552,28.736 105.408,28.24 105.408,27.584 L105.408,22.784 L103.872,22.784 L103.872,21.376 L105.408,21.376 L105.408,19.408 L107.104,18.704 Z" id="PCWallet" fill="#FFFFFF"></path>
                    </g>
                </g>
            </g>
        </g>
    </g>
</svg>