<?xml version="1.0" encoding="UTF-8"?>
<svg width="186px" height="42px" viewBox="0 0 186 42" version="1.1" xmlns="http://www.w3.org/2000/svg" xmlns:xlink="http://www.w3.org/1999/xlink">
    <!-- Generator: Sketch 59.1 (86144) - https://sketch.com -->
    <title>App Store Badge US Black备份</title>
    <desc>Created with Sketch.</desc>
    <g id="页面-1" stroke="none" stroke-width="1" fill="none" fill-rule="evenodd">
        <g id="桌面端-HD备份" transform="translate(-819.000000, -277.000000)">
            <g id="下载平台" transform="translate(435.000000, 277.000000)">
                <g id="App-Store-Badge-US-Black备份" transform="translate(385.000000, 1.000000)">
                    <rect id="矩形备份-2" stroke="#979797" fill-opacity="0.200229458" fill="#D8D8D8" x="0" y="0" width="184" height="40" rx="6"></rect>
                    <g id="pc" transform="translate(39.000000, 10.000000)" fill-rule="nonzero">
                        <path d="M1.41060021,0 C0.521922599,0 0,0.504993753 0,1.40495726 L0,14.7435878 C0,15.6435494 0.521922599,16.1471334 1.41060021,16.1471334 L21.1589916,16.1443122 C22.0476692,16.1443122 22.5695918,15.6393184 22.5695918,14.7393549 L22.5695918,1.40496718 C22.5695918,0.505005594 22.0476692,0 21.1589916,0 L1.41060021,0 L1.41060021,0 Z M10.4779275,14.2851455 C10.4779275,13.8351637 10.8376298,13.4740517 11.2819686,13.4740517 C11.7277172,13.4740517 12.0874214,13.8393969 12.0874214,14.2851455 L12.0874215,14.285148 C12.0905494,14.7325609 11.7307836,15.0980045 11.2833765,15.1018828 L11.2833765,15.1018828 C10.8362972,15.0972316 10.4769825,14.7322427 10.4793354,14.285146 L10.4779275,14.2851455 Z M7.05298948,17.5690291 L15.516583,17.5690291 L15.516583,19.5438682 L7.05298948,19.5438682 L7.05298948,17.5690291 Z" id="形状" fill="#FFFFFF"></path>
                        <polygon id="路径" fill="#F5F5F5" points="2.11589164 12.6954 20.4536809 12.6954 20.4536809 1.80556997 2.11589164 1.80556997"></polygon>
                    </g>
                    <path d="M69.82619,8.731 C70.6151366,8.67438418 71.3878923,8.97454743 71.9317613,9.54887182 C72.4756303,10.1231962 72.7332859,10.9111448 72.63381,11.69584 C72.63381,13.60209 71.60354,14.69784 69.82619,14.69784 L67.67092,14.69784 L67.67092,8.731 L69.82619,8.731 Z M68.59767,13.854 L69.72267,13.854 C70.2864919,13.887702 70.8354865,13.665559 71.2172185,13.2492518 C71.5989505,12.8329446 71.7727796,12.2667944 71.69044,11.708 C71.766789,11.1515245 71.5904566,10.5900462 71.2096711,10.177134 C70.8288856,9.76422175 70.2834957,9.5430863 69.72267,9.57421 L68.59767,9.57421 L68.59767,13.854 Z M73.68068,12.44434 C73.6034671,11.6372251 73.9904837,10.8561119 74.6794159,10.4285974 C75.3683482,10.0010828 76.2400818,10.0010828 76.9290141,10.4285974 C77.6179463,10.8561119 78.0049629,11.6372251 77.92775,12.44434 C78.0064319,13.2523223 77.6197687,14.0349504 76.9302255,14.4633853 C76.2406824,14.8918202 75.3677476,14.8918202 74.6782045,14.4633853 C73.9886613,14.0349504 73.6019981,13.2523223 73.68068,12.44434 Z M77.01369,12.44434 C77.01369,11.46827 76.5752,10.89747 75.80568,10.89747 C75.03322,10.89747 74.59868,11.46827 74.59868,12.44435 C74.59868,13.42824 75.03325,13.99464 75.80568,13.99464 C76.57522,13.99464 77.01369,13.42432 77.01369,12.44434 L77.01369,12.44434 Z M83.57326,14.69775 L82.65139,14.69775 L81.72073,11.38134 L81.65042,11.38134 L80.72366,14.69775 L79.81057,14.69775 L78.56936,10.19482 L79.47073,10.19482 L80.27737,13.63082 L80.34378,13.63082 L81.26956,10.19482 L82.1221,10.19482 L83.04788,13.63082 L83.11819,13.63082 L83.92092,10.19482 L84.80959,10.19482 L83.57326,14.69775 Z M85.85353,10.19482 L86.709,10.19482 L86.709,10.91015 L86.77541,10.91015 C87.0063449,10.3834779 87.5459729,10.0613075 88.11916,10.1079 C88.5629768,10.0745318 88.9978859,10.2447899 89.3010908,10.5706021 C89.6042957,10.8964142 89.7428931,11.3424238 89.67775,11.7827 L89.67775,14.6977 L88.78908,14.6977 L88.78908,12.00586 C88.78908,11.28223 88.47463,10.92236 87.8174,10.92236 C87.5163658,10.9083391 87.2242202,11.0264826 87.0175546,11.2458168 C86.810889,11.465151 86.710315,11.763801 86.7422,12.06347 L86.7422,14.69775 L85.85353,14.69775 L85.85353,10.19482 Z M91.09377,8.437 L91.98244,8.437 L91.98244,14.69774 L91.09377,14.69774 L91.09377,8.437 Z M93.21779,12.44434 C93.1406364,11.6371722 93.527714,10.8560394 94.2166974,10.4285182 C94.9056808,10.000997 95.7774592,10.000997 96.4664426,10.4285182 C97.155426,10.8560394 97.5425036,11.6371722 97.46535,12.44434 C97.543932,13.2523512 97.1571979,14.0349572 96.4676205,14.4633732 C95.7780432,14.8917893 94.9050968,14.8917893 94.2155195,14.4633732 C93.5259421,14.0349572 93.139208,13.2523512 93.21779,12.44434 L93.21779,12.44434 Z M96.5508,12.44434 C96.5508,11.46827 96.11231,10.89747 95.34279,10.89747 C94.57033,10.89747 94.13579,11.46827 94.13579,12.44435 C94.13579,13.42824 94.57036,13.99464 95.34279,13.99464 C96.11232,13.99464 96.5508,13.42432 96.5508,12.44434 L96.5508,12.44434 Z M98.4009,13.42432 C98.4009,12.61377 99.00442,12.14649 100.0757,12.08008 L101.29543,12.00977 L101.29543,11.6211 C101.29543,11.14551 100.98098,10.87696 100.37356,10.87696 C99.87747,10.87696 99.53372,11.05909 99.43508,11.37745 L98.57473,11.37745 C98.66555,10.60401 99.39309,10.10792 100.41457,10.10792 C101.54348,10.10792 102.1802,10.66992 102.1802,11.6211 L102.1802,14.69776 L101.32473,14.69776 L101.32473,14.06495 L101.25442,14.06495 C100.963869,14.5270763 100.447174,14.7971632 99.90188,14.77195 C99.5196161,14.8117118 99.1383711,14.6879107 98.8523958,14.4311524 C98.5664205,14.1743942 98.4024061,13.8086433 98.4009,13.42432 L98.4009,13.42432 Z M101.29543,13.03955 L101.29543,12.66309 L100.19582,12.7334 C99.5757,12.7749 99.29445,12.98584 99.29445,13.38281 C99.29445,13.78808 99.64601,14.02392 100.12945,14.02392 C100.415636,14.0528899 100.701326,13.9644751 100.92112,13.7789156 C101.140914,13.5933561 101.275992,13.3265411 101.29543,13.03955 Z M103.34816,12.44434 C103.34816,11.02149 104.07961,10.12012 105.2173,10.12012 C105.791777,10.0936501 106.329828,10.4014729 106.59816,10.91012 L106.66457,10.91012 L106.66457,8.437 L107.55324,8.437 L107.55324,14.69774 L106.70168,14.69774 L106.70168,13.98631 L106.63137,13.98631 C106.342754,14.490737 105.798075,14.7933565 105.21731,14.77195 C104.0718,14.772 103.34816,13.87061 103.34816,12.44434 Z M104.26616,12.44434 C104.26616,13.39942 104.71636,13.97413 105.46929,13.97413 C106.21829,13.97413 106.6812,13.39113 106.6812,12.44825 C106.6812,11.50977 106.21343,10.91846 105.46929,10.91846 C104.72121,10.91846 104.26613,11.49707 104.26613,12.44434 L104.26616,12.44434 Z M113.60449,9.07373 L113.60449,10.21533 L114.58008,10.21533 L114.58008,10.96387 L113.60449,10.96387 L113.60449,13.2793 C113.60449,13.75098 113.79883,13.95752 114.24121,13.95752 C114.354466,13.9571575 114.467607,13.9503097 114.58008,13.93701 L114.58008,14.67724 C114.42049,14.7057907 114.258796,14.72098 114.09668,14.72265 C113.1084,14.72265 112.71484,14.37499 112.71484,13.50683 L112.71484,10.96383 L112,10.96383 L112,10.21529 L112.71484,10.21529 L112.71484,9.07373 L113.60449,9.07373 Z M115.79394,8.437 L116.6748,8.437 L116.6748,10.91845 L116.74511,10.91845 C116.987138,10.3871686 117.53621,10.0645875 118.11811,10.11181 C118.559407,10.0877973 118.988428,10.2618037 119.288319,10.5864339 C119.58821,10.911064 119.727735,11.3525056 119.66889,11.79052 L119.66889,14.69775 L118.77933,14.69775 L118.77933,12.00975 C118.77933,11.29051 118.44433,10.92625 117.81644,10.92625 C117.507269,10.9008937 117.202669,11.013291 116.984072,11.2333935 C116.765476,11.453496 116.655172,11.7588603 116.68265,12.06785 L116.68265,14.69775 L115.79398,14.69775 L115.79394,8.437 Z M124.85058,13.48193 C124.601387,14.3313095 123.779429,14.880103 122.89941,14.78466 C122.298974,14.8005102 121.721921,14.5516307 121.321358,14.1040552 C120.920795,13.6564796 120.737216,13.0554559 120.81933,12.46045 C120.739397,11.8637905 120.922288,11.2618037 121.320621,10.810447 C121.718953,10.3590902 122.293532,10.1027768 122.8955,10.10791 C124.14843,10.10791 124.90429,10.96391 124.90429,12.37791 L124.90429,12.688 L121.7246,12.688 L121.7246,12.7378 C121.696462,13.0719401 121.810581,13.4024478 122.038891,13.6480407 C122.267201,13.8936336 122.588518,14.0315239 122.92382,14.0278 C123.358592,14.0799947 123.781813,13.864333 123.99511,13.4819 L124.85058,13.48193 Z M121.72458,12.03076 L123.99899,12.03076 C124.021643,11.7251604 123.914188,11.4242051 123.703107,11.2020591 C123.492025,10.9799131 123.196947,10.8572362 122.89059,10.86426 C122.580082,10.8603589 122.281158,10.9820212 122.061626,11.2016489 C121.842095,11.4212765 121.720563,11.7202537 121.7246,12.03076 L121.72458,12.03076 Z" id="Download-on-the" fill="#FFFFFF" fill-rule="nonzero"></path>
                    <path d="M68,18.224 L68,29.648 L69.744,29.648 L69.744,25.2 L72.704,25.2 C75.44,25.2 76.816,24.032 76.816,21.696 C76.816,19.376 75.456,18.224 72.736,18.224 L68,18.224 Z M69.744,19.712 L72.592,19.712 C73.44,19.712 74.064,19.872 74.464,20.192 C74.864,20.48 75.072,20.992 75.072,21.696 C75.072,22.4 74.864,22.912 74.48,23.232 C74.08,23.552 73.456,23.712 72.592,23.712 L69.744,23.712 L69.744,19.712 Z M83.392,18 C81.568,18 80.192,18.592 79.232,19.808 C78.368,20.88 77.952,22.256 77.952,23.952 C77.952,25.68 78.352,27.056 79.184,28.08 C80.128,29.264 81.536,29.872 83.408,29.872 C84.64,29.872 85.696,29.52 86.576,28.816 C87.52,28.064 88.112,27.024 88.368,25.696 L86.672,25.696 C86.448,26.592 86.048,27.264 85.472,27.712 C84.928,28.128 84.224,28.336 83.392,28.336 C82.112,28.336 81.168,27.936 80.56,27.136 C79.984,26.384 79.696,25.328 79.696,23.952 C79.696,22.624 79.984,21.568 80.576,20.8 C81.2,19.952 82.128,19.536 83.36,19.536 C84.192,19.536 84.864,19.712 85.408,20.08 C85.952,20.448 86.32,21.024 86.512,21.792 L88.208,21.792 C88.032,20.64 87.52,19.712 86.688,19.04 C85.824,18.336 84.72,18 83.392,18 Z M94.416,18.224 L97.696,29.648 L99.568,29.648 L101.888,20.832 L101.952,20.832 L104.272,29.648 L106.128,29.648 L109.424,18.224 L107.456,18.224 L105.232,27.12 L105.168,27.12 L102.832,18.224 L101.008,18.224 L98.672,27.12 L98.608,27.12 L96.384,18.224 L94.416,18.224 Z M114.192,21.152 C113.168,21.152 112.336,21.328 111.728,21.712 C111.024,22.128 110.576,22.8 110.4,23.696 L112.08,23.84 C112.176,23.376 112.416,23.04 112.8,22.816 C113.12,22.624 113.552,22.528 114.08,22.528 C115.328,22.528 115.952,23.104 115.952,24.256 L115.952,24.592 L114.096,24.64 C112.88,24.672 111.92,24.912 111.248,25.392 C110.512,25.888 110.144,26.608 110.144,27.536 C110.144,28.224 110.4,28.784 110.928,29.216 C111.408,29.648 112.08,29.872 112.944,29.872 C113.68,29.872 114.32,29.728 114.864,29.472 C115.344,29.232 115.744,28.896 116.064,28.48 L116.064,29.648 L117.632,29.648 L117.632,24.368 C117.632,23.36 117.376,22.592 116.88,22.064 C116.304,21.456 115.408,21.152 114.192,21.152 Z M115.952,25.824 L115.952,26.304 C115.952,26.944 115.68,27.488 115.168,27.92 C114.656,28.352 114.048,28.576 113.328,28.576 C112.896,28.576 112.544,28.464 112.288,28.256 C112.016,28.048 111.888,27.792 111.888,27.472 C111.888,26.4945455 112.587769,25.9544463 114.001222,25.8795342 L115.952,25.824 Z M119.76,18 L119.76,29.648 L121.456,29.648 L121.456,18 L119.76,18 Z M123.76,18 L123.76,29.648 L125.456,29.648 L125.456,18 L123.76,18 Z M131.072,21.152 C129.856,21.152 128.88,21.568 128.176,22.416 C127.44,23.248 127.088,24.272 127.088,25.504 C127.088,26.864 127.472,27.936 128.24,28.736 C128.944,29.488 129.92,29.872 131.136,29.872 C132.24,29.872 133.152,29.552 133.872,28.928 C134.448,28.416 134.816,27.76 135.008,26.992 L133.312,26.992 C133.088,27.472 132.848,27.84 132.56,28.064 C132.192,28.336 131.712,28.48 131.12,28.48 C130.448,28.48 129.92,28.256 129.536,27.84 C129.152,27.408 128.944,26.784 128.88,25.984 L135.152,25.984 C135.136,24.512 134.8,23.36 134.16,22.528 C133.456,21.6 132.416,21.152 131.072,21.152 Z M131.12,22.544 C132.464,22.544 133.216,23.264 133.376,24.704 L128.912,24.704 C129.008,24 129.248,23.472 129.6,23.104 C129.984,22.72 130.48,22.544 131.12,22.544 Z M139.104,18.704 L139.104,21.376 L140.992,21.376 L140.992,22.784 L139.104,22.784 L139.104,27.584 C139.104,27.808 139.152,27.968 139.248,28.08 C139.344,28.176 139.488,28.24 139.696,28.24 L140.784,28.24 L140.784,29.648 L139.424,29.648 C138.72,29.648 138.192,29.456 137.872,29.088 C137.552,28.736 137.408,28.24 137.408,27.584 L137.408,22.784 L135.872,22.784 L135.872,21.376 L137.408,21.376 L137.408,19.408 L139.104,18.704 Z" id="PCWallet" fill="#FFFFFF" fill-rule="nonzero"></path>
                </g>
            </g>
        </g>
    </g>
</svg>