<?xml version="1.0" encoding="UTF-8"?>
<svg width="120px" height="40px" viewBox="0 0 120 40" version="1.1" xmlns="http://www.w3.org/2000/svg" xmlns:xlink="http://www.w3.org/1999/xlink">
    <!-- Generator: Sketch 59.1 (86144) - https://sketch.com -->
    <title>App Store Badge US Black</title>
    <desc>Created with Sketch.</desc>
    <g id="页面-1" stroke="none" stroke-width="1" fill="none" fill-rule="evenodd">
        <g id="桌面端-HD备份" transform="translate(-381.000000, -1210.000000)" fill-rule="nonzero">
            <g id="编组-15" transform="translate(0.000000, 1064.000000)">
                <g id="下载平台" transform="translate(230.000000, 146.000000)">
                    <g id="App-Store-Badge-US-Black" transform="translate(151.000000, 0.000000)">
                        <path d="M110.13477,-0.00013 L9.53468,-0.00013 C9.16798,-0.00013 8.80568,-0.00013 8.43995,0.002 C8.1338,0.004 7.83009,0.00981 7.521,0.0147 C6.84951368,0.0226018036 6.17960647,0.0816762599 5.5171,0.19141 C4.85552408,0.303532628 4.21467252,0.51491574 3.61622,0.81841 C3.01849941,1.12447171 2.47234502,1.52216753 1.99757,1.99707 C1.5203025,2.47063699 1.12246318,3.01801638 0.81935,3.61816 C0.515400242,4.21710912 0.304640498,4.8589383 0.19435,5.52148 C0.0830109412,6.18318491 0.0230983806,6.85252054 0.01515,7.52348 C0.00587,7.83008 0.00489,8.1377 0,8.44434 L0,31.5586 C0.00489,31.8691 0.00587,32.1699 0.01515,32.4805 C0.023100818,33.1514262 0.0830133796,33.8207284 0.19435,34.4824 C0.304335953,35.145329 0.515108158,35.7875266 0.81935,36.3867 C1.12232555,36.9849029 1.52022081,37.5300662 1.99757,38.001 C2.47054482,38.478014 3.01705224,38.8759804 3.61622,39.1797 C4.21466797,39.4840065 4.85545044,39.6966478 5.5171,39.8105 C6.1797191,39.9193547 6.84955741,39.9784532 7.521,39.9873 C7.83009,39.9941 8.1338,39.998 8.43995,39.998 C8.80567,40 9.168,40 9.53468,40 L110.13477,40 C110.49417,40 110.85937,40 111.21877,39.998 C111.52347,39.998 111.83597,39.9941 112.14067,39.9873 C112.810843,39.9789237 113.47942,39.9198215 114.14067,39.8105 C114.804454,39.6958464 115.447534,39.4832614 116.04887,39.1797 C116.647497,38.8758046 117.1935,38.4778491 117.66607,38.001 C118.142188,37.5282218 118.540932,36.9834573 118.84767,36.3867 C119.149629,35.7870908 119.358395,35.1449445 119.46677,34.4824 C119.578285,33.8206376 119.640323,33.1514843 119.65237,32.4805 C119.65627,32.1699 119.65627,31.8691 119.65627,31.5586 C119.66407,31.1953 119.66407,30.834 119.66407,30.4648 L119.66407,9.53613 C119.66407,9.16992 119.66407,8.80664 119.65627,8.44434 C119.65627,8.1377 119.65627,7.83008 119.65237,7.52344 C119.640326,6.85242244 119.578287,6.18323567 119.46677,5.52144 C119.358093,4.8592816 119.149339,4.21750328 118.84767,3.61812 C118.230394,2.41519608 117.251573,1.4360254 116.04887,0.81832 C115.447532,0.51556738 114.804383,0.30424041 114.14067,0.19132 C113.479535,0.0811027831 112.810888,0.0220077649 112.14067,0.01456 C111.83597,0.00968 111.52347,0.00382 111.21877,0.00187 C110.85937,-0.00013 110.49417,-0.00013 110.13477,-0.00013 L110.13477,-0.00013 Z" id="Background-Gray" fill="#A6A6A6"></path>
                        <path d="M8.44483,39.125 C8.14015,39.125 7.84283,39.1211 7.54054,39.1143 C6.91432177,39.1061407 6.28956717,39.051625 5.6714,38.9512 C5.0949903,38.8519282 4.53660424,38.6672645 4.01466,38.4033 C3.4975017,38.1415227 3.02581177,37.7982729 2.61766,37.3867 C2.20360033,36.9799753 1.85887673,36.508244 1.59715,35.9902 C1.33253926,35.4687891 1.14941288,34.9098996 1.05415,34.333 C0.951274358,33.7131149 0.895614374,33.0863132 0.88765,32.458 C0.88131,32.2471 0.87301,31.5449 0.87301,31.5449 L0.87301,8.44434 C0.87301,8.44434 0.88185,7.75293 0.8877,7.5498 C0.895325827,6.92248205 0.950662148,6.2966531 1.05323,5.67773 C1.14866872,5.09925008 1.33193687,4.53874887 1.59669,4.01563 C1.85745482,3.49794385 2.20026458,3.02586029 2.61183,2.61768 C3.02293283,2.20562142 3.49613161,1.86060412 4.01417,1.59521 C4.53491467,1.3320936 5.09224545,1.14873255 5.66749,1.05127 C6.28768733,0.949836139 6.91461084,0.894996084 7.543,0.88721 L8.44532,0.875 L111.21387,0.875 L112.12697,0.8877 C112.749643,0.895099198 113.370872,0.949450006 113.98537,1.05029 C114.566438,1.14897507 115.129577,1.33361553 115.65627,1.59814 C116.694088,2.13298605 117.538542,2.97916295 118.07127,4.01807 C118.331797,4.53757756 118.512239,5.09350676 118.60647,5.66699 C118.710259,6.29099138 118.768347,6.92173834 118.78027,7.5542 C118.78317,7.8374 118.78317,8.1416 118.78317,8.44434 C118.79107,8.81934 118.79107,9.17627 118.79107,9.53613 L118.79107,30.4648 C118.79107,30.8281 118.79107,31.1826 118.78317,31.54 C118.78317,31.8652 118.78317,32.1631 118.77927,32.4697 C118.767605,33.0908757 118.710486,33.7103642 118.60837,34.3232 C118.51506,34.9042612 118.33293,35.4675131 118.06837,35.9932 C117.804793,36.5056211 117.462049,36.9732662 117.05277,37.3789 C116.644251,37.7926846 116.171729,38.1379427 115.65337,38.4014 C115.128136,38.6673937 114.565826,38.8527403 113.98537,38.9512 C113.36725,39.052161 112.742435,39.1066802 112.11617,39.1143 C111.82327,39.1211 111.51657,39.125 111.21877,39.125 L110.13477,39.127 L8.44483,39.125 Z" id="Background-Black" fill="#000000"></path>
                        <path d="M41.875,27.26861 L37.1416,27.26861 L36.00488,30.62506 L34,30.62506 L38.4834,18.20706 L40.5664,18.20706 L45.0498,30.62506 L43.01073,30.62506 L41.875,27.26861 Z M37.63183,25.71978 L41.38383,25.71978 L39.53422,20.27251 L39.48246,20.27251 L37.63183,25.71978 Z M54.73242,26.09869 C54.73242,28.91217 53.22656,30.71978 50.9541,30.71978 C49.7794853,30.7812246 48.6730624,30.1659907 48.10547,29.13578 L48.06247,29.13578 L48.06247,33.62016 L46.20407,33.62016 L46.20407,21.57134 L48.00293,21.57134 L48.00293,23.0772 L48.03711,23.0772 C48.6299183,22.0534479 49.7375343,21.4384788 50.91992,21.47661 C53.21773,21.47662 54.73242,23.29302 54.73242,26.09869 Z M52.82226,26.09869 C52.82226,24.26569 51.87499,23.0606 50.42968,23.0606 C49.00976,23.0606 48.05468,24.29107 48.05468,26.09869 C48.05468,27.92291 49.00976,29.14459 50.42968,29.14459 C51.875,29.14459 52.82226,27.9483 52.82226,26.09869 Z M64.69726,26.09869 C64.69726,28.91217 63.1914,30.71978 60.91894,30.71978 C59.7443253,30.7812246 58.6379024,30.1659907 58.07031,29.13578 L58.02731,29.13578 L58.02731,33.62016 L56.16891,33.62016 L56.16891,21.57134 L57.96773,21.57134 L57.96773,23.0772 L58.00191,23.0772 C58.5947226,22.0534485 59.7023428,21.4384831 60.88473,21.47662 C63.18261,21.47662 64.69726,23.29302 64.69726,26.09869 Z M62.78711,26.09869 C62.78711,24.26569 61.83983,23.0606 60.39452,23.0606 C58.9746,23.0606 58.01952,24.29107 58.01952,26.09869 C58.01952,27.92291 58.9746,29.14459 60.39452,29.14459 C61.83984,29.14459 62.78711,27.9483 62.78711,26.09869 L62.78711,26.09869 Z M71.2832,27.16509 C71.4209,28.39654 72.6172,29.20509 74.25195,29.20509 C75.81836,29.20509 76.94531,28.3965 76.94531,27.28614 C76.94531,26.32227 76.26562,25.74514 74.65625,25.34962 L73.04688,24.96192 C70.76661,24.41114 69.70801,23.34473 69.70801,21.61426 C69.70801,19.47168 71.5752,18 74.22656,18 C76.85056,18 78.64941,19.47168 78.70996,21.61426 L76.83396,21.61426 C76.72166,20.375 75.69724,19.62696 74.20017,19.62696 C72.7031,19.62696 71.67869,20.3838 71.67869,21.48536 C71.67869,22.36329 72.33299,22.87989 73.93357,23.27536 L75.30173,23.6113 C77.84958,24.21384 78.90818,25.2373 78.90818,27.05368 C78.90818,29.37692 77.05759,30.832 74.11423,30.832 C71.36032,30.832 69.50095,29.4111 69.38083,27.165 L71.2832,27.16509 Z M82.91894,19.42876 L82.91894,21.57134 L84.64062,21.57134 L84.64062,23.04302 L82.91894,23.04302 L82.91894,28.03423 C82.91894,28.80962 83.26367,29.17095 84.0205,29.17095 C84.2248914,29.1673859 84.4289521,29.1530326 84.63183,29.12795 L84.63183,30.59084 C84.2915583,30.6544196 83.9457008,30.6832145 83.5996,30.67678 C81.7666,30.67678 81.05175,29.9883 81.05175,28.23244 L81.05175,23.04302 L79.73535,23.04302 L79.73535,21.57134 L81.05173,21.57134 L81.05173,19.42876 L82.91894,19.42876 Z M85.63773,26.09869 C85.63773,23.25006 87.31546,21.46002 89.93168,21.46002 C92.55668,21.46002 94.2266,23.25002 94.2266,26.09869 C94.2266,28.95514 92.56547,30.73736 89.93168,30.73736 C87.29882,30.73736 85.63773,28.95513 85.63773,26.09869 Z M92.33304,26.09869 C92.33304,24.14459 91.43753,22.99127 89.93167,22.99127 C88.42581,22.99127 87.53128,24.15338 87.53128,26.09869 C87.53128,28.0606 88.42581,29.20514 89.93167,29.20514 C91.43753,29.20514 92.33304,28.0606 92.33304,26.09869 L92.33304,26.09869 Z M95.75878,21.57134 L97.53125,21.57134 L97.53125,23.11234 L97.57425,23.11234 C97.821426,22.1203284 98.7303826,21.4375916 99.75198,21.4766 C99.966144,21.4758522 100.179717,21.4991107 100.3887,21.54594 L100.3887,23.28422 C100.118331,23.2016033 99.8362896,23.1636713 99.5537,23.17192 C99.0073482,23.1497554 98.4786009,23.3674947 98.1062915,23.767966 C97.733982,24.1684372 97.5553066,24.7116307 97.61718,25.25492 L97.61718,30.62504 L95.75878,30.62504 L95.75878,21.57134 Z M108.95703,27.96587 C108.70703,29.60942 107.10644,30.73735 105.05859,30.73735 C102.4248,30.73735 100.79004,28.9727 100.79004,26.14165 C100.79004,23.30181 102.43359,21.46001 104.98047,21.46001 C107.48535,21.46001 109.06055,23.18071 109.06055,25.92583 L109.06055,26.56255 L102.66602,26.56255 L102.66602,26.67485 C102.606317,27.3488816 102.839062,28.0160794 103.30505,28.5067299 C103.771038,28.9973804 104.425357,29.2641933 105.10157,29.2393 C106.003412,29.3237996 106.853673,28.8059377 107.19239,27.96586 L108.95703,27.96587 Z M102.674792,25.26373 L107.20117,25.26373 C107.234895,24.6580575 107.014427,24.0657831 106.59288,23.6295915 C106.171334,23.1934 105.586931,22.9528404 104.98047,22.96587 C104.369212,22.9622222 103.781821,23.2028946 103.348856,23.6343932 C102.91589,24.0658919 102.673226,24.6524629 102.674792,25.26373 L102.674792,25.26373 Z" id="App-Store" fill="#FFFFFF"></path>
                        <path d="M37.82619,8.731 C38.6151366,8.67438418 39.3878923,8.97454743 39.9317613,9.54887182 C40.4756303,10.1231962 40.7332859,10.9111448 40.63381,11.69584 C40.63381,13.60209 39.60354,14.69784 37.82619,14.69784 L35.67092,14.69784 L35.67092,8.731 L37.82619,8.731 Z M36.59767,13.854 L37.72267,13.854 C38.2864919,13.887702 38.8354865,13.665559 39.2172185,13.2492518 C39.5989505,12.8329446 39.7727796,12.2667944 39.69044,11.708 C39.766789,11.1515245 39.5904566,10.5900462 39.2096711,10.177134 C38.8288856,9.76422175 38.2834957,9.5430863 37.72267,9.57421 L36.59767,9.57421 L36.59767,13.854 Z M41.68068,12.44434 C41.6034671,11.6372251 41.9904837,10.8561119 42.6794159,10.4285974 C43.3683482,10.0010828 44.2400818,10.0010828 44.9290141,10.4285974 C45.6179463,10.8561119 46.0049629,11.6372251 45.92775,12.44434 C46.0064319,13.2523223 45.6197687,14.0349504 44.9302255,14.4633853 C44.2406824,14.8918202 43.3677476,14.8918202 42.6782045,14.4633853 C41.9886613,14.0349504 41.6019981,13.2523223 41.68068,12.44434 Z M45.01369,12.44434 C45.01369,11.46827 44.5752,10.89747 43.80568,10.89747 C43.03322,10.89747 42.59868,11.46827 42.59868,12.44435 C42.59868,13.42824 43.03325,13.99464 43.80568,13.99464 C44.57522,13.99464 45.01369,13.42432 45.01369,12.44434 L45.01369,12.44434 Z M51.57326,14.69775 L50.65139,14.69775 L49.72073,11.38134 L49.65042,11.38134 L48.72366,14.69775 L47.81057,14.69775 L46.56936,10.19482 L47.47073,10.19482 L48.27737,13.63082 L48.34378,13.63082 L49.26956,10.19482 L50.1221,10.19482 L51.04788,13.63082 L51.11819,13.63082 L51.92092,10.19482 L52.80959,10.19482 L51.57326,14.69775 Z M53.85353,10.19482 L54.709,10.19482 L54.709,10.91015 L54.77541,10.91015 C55.0063449,10.3834779 55.5459729,10.0613075 56.11916,10.1079 C56.5629768,10.0745318 56.9978859,10.2447899 57.3010908,10.5706021 C57.6042957,10.8964142 57.7428931,11.3424238 57.67775,11.7827 L57.67775,14.6977 L56.78908,14.6977 L56.78908,12.00586 C56.78908,11.28223 56.47463,10.92236 55.8174,10.92236 C55.5163658,10.9083391 55.2242202,11.0264826 55.0175546,11.2458168 C54.810889,11.465151 54.710315,11.763801 54.7422,12.06347 L54.7422,14.69775 L53.85353,14.69775 L53.85353,10.19482 Z M59.09377,8.437 L59.98244,8.437 L59.98244,14.69774 L59.09377,14.69774 L59.09377,8.437 Z M61.21779,12.44434 C61.1406364,11.6371722 61.527714,10.8560394 62.2166974,10.4285182 C62.9056808,10.000997 63.7774592,10.000997 64.4664426,10.4285182 C65.155426,10.8560394 65.5425036,11.6371722 65.46535,12.44434 C65.543932,13.2523512 65.1571979,14.0349572 64.4676205,14.4633732 C63.7780432,14.8917893 62.9050968,14.8917893 62.2155195,14.4633732 C61.5259421,14.0349572 61.139208,13.2523512 61.21779,12.44434 L61.21779,12.44434 Z M64.5508,12.44434 C64.5508,11.46827 64.11231,10.89747 63.34279,10.89747 C62.57033,10.89747 62.13579,11.46827 62.13579,12.44435 C62.13579,13.42824 62.57036,13.99464 63.34279,13.99464 C64.11232,13.99464 64.5508,13.42432 64.5508,12.44434 L64.5508,12.44434 Z M66.4009,13.42432 C66.4009,12.61377 67.00442,12.14649 68.0757,12.08008 L69.29543,12.00977 L69.29543,11.6211 C69.29543,11.14551 68.98098,10.87696 68.37356,10.87696 C67.87747,10.87696 67.53372,11.05909 67.43508,11.37745 L66.57473,11.37745 C66.66555,10.60401 67.39309,10.10792 68.41457,10.10792 C69.54348,10.10792 70.1802,10.66992 70.1802,11.6211 L70.1802,14.69776 L69.32473,14.69776 L69.32473,14.06495 L69.25442,14.06495 C68.9638686,14.5270763 68.4471736,14.7971632 67.90188,14.77195 C67.5196161,14.8117118 67.1383711,14.6879107 66.8523958,14.4311524 C66.5664205,14.1743942 66.4024061,13.8086433 66.4009,13.42432 L66.4009,13.42432 Z M69.29543,13.03955 L69.29543,12.66309 L68.19582,12.7334 C67.5757,12.7749 67.29445,12.98584 67.29445,13.38281 C67.29445,13.78808 67.64601,14.02392 68.12945,14.02392 C68.4156361,14.0528899 68.7013264,13.9644751 68.9211204,13.7789156 C69.1409144,13.5933561 69.2759916,13.3265411 69.29543,13.03955 Z M71.34816,12.44434 C71.34816,11.02149 72.07961,10.12012 73.2173,10.12012 C73.7917768,10.0936501 74.3298275,10.4014729 74.59816,10.91012 L74.66457,10.91012 L74.66457,8.437 L75.55324,8.437 L75.55324,14.69774 L74.70168,14.69774 L74.70168,13.98631 L74.63137,13.98631 C74.3427542,14.490737 73.7980745,14.7933565 73.21731,14.77195 C72.0718,14.772 71.34816,13.87061 71.34816,12.44434 Z M72.26616,12.44434 C72.26616,13.39942 72.71636,13.97413 73.46929,13.97413 C74.21829,13.97413 74.6812,13.39113 74.6812,12.44825 C74.6812,11.50977 74.21343,10.91846 73.46929,10.91846 C72.72121,10.91846 72.26613,11.49707 72.26613,12.44434 L72.26616,12.44434 Z M79.23,12.44434 C79.1527871,11.6372251 79.5398037,10.8561119 80.2287359,10.4285974 C80.9176682,10.0010828 81.7894018,10.0010828 82.4783341,10.4285974 C83.1672663,10.8561119 83.5542829,11.6372251 83.47707,12.44434 C83.5557519,13.2523223 83.1690887,14.0349504 82.4795455,14.4633853 C81.7900024,14.8918202 80.9170676,14.8918202 80.2275245,14.4633853 C79.5379813,14.0349504 79.1513181,13.2523223 79.23,12.44434 L79.23,12.44434 Z M82.563,12.44434 C82.563,11.46827 82.12452,10.89747 81.355,10.89747 C80.58254,10.89747 80.148,11.46827 80.148,12.44435 C80.148,13.42824 80.58257,13.99464 81.355,13.99464 C82.12453,13.99464 82.563,13.42432 82.563,12.44434 Z M84.66945,10.19482 L85.52492,10.19482 L85.52492,10.91015 L85.59133,10.91015 C85.8222649,10.3834779 86.3618929,10.0613075 86.93508,10.1079 C87.3788968,10.0745318 87.8138059,10.2447899 88.1170108,10.5706021 C88.4202157,10.8964142 88.5588131,11.3424238 88.49367,11.7827 L88.49367,14.6977 L87.605,14.6977 L87.605,12.00586 C87.605,11.28223 87.29055,10.92236 86.63332,10.92236 C86.3322858,10.9083391 86.0401402,11.0264826 85.8334746,11.2458168 C85.626809,11.465151 85.526235,11.763801 85.55812,12.06347 L85.55812,14.69775 L84.66945,14.69775 L84.66945,10.19482 Z M93.51516,9.07373 L93.51516,10.21533 L94.49075,10.21533 L94.49075,10.96387 L93.51516,10.96387 L93.51516,13.2793 C93.51516,13.75098 93.7095,13.95752 94.15188,13.95752 C94.2651356,13.9571575 94.3782775,13.9503097 94.49075,13.93701 L94.49075,14.67724 C94.3311595,14.7057907 94.1694656,14.72098 94.00735,14.72265 C93.01907,14.72265 92.62551,14.37499 92.62551,13.50683 L92.62551,10.96383 L91.91067,10.96383 L91.91067,10.21529 L92.62551,10.21529 L92.62551,9.07373 L93.51516,9.07373 Z M95.70461,8.437 L96.58547,8.437 L96.58547,10.91845 L96.65578,10.91845 C96.8978078,10.3871686 97.4468801,10.0645875 98.02878,10.11181 C98.4700766,10.0877973 98.8990983,10.2618037 99.1989893,10.5864339 C99.4988802,10.911064 99.6384049,11.3525056 99.57956,11.79052 L99.57956,14.69775 L98.69,14.69775 L98.69,12.00975 C98.69,11.29051 98.355,10.92625 97.72711,10.92625 C97.417939,10.9008937 97.1133391,11.013291 96.8947423,11.2333935 C96.6761456,11.453496 96.5658419,11.7588603 96.59332,12.06785 L96.59332,14.69775 L95.70465,14.69775 L95.70461,8.437 Z M104.76125,13.48193 C104.512057,14.3313095 103.690099,14.880103 102.81008,14.78466 C102.209644,14.8005102 101.632591,14.5516307 101.232028,14.1040552 C100.831465,13.6564796 100.647886,13.0554559 100.73,12.46045 C100.650067,11.8637905 100.832958,11.2618037 101.231291,10.810447 C101.629623,10.3590902 102.204202,10.1027768 102.80617,10.10791 C104.0591,10.10791 104.81496,10.96391 104.81496,12.37791 L104.81496,12.688 L101.63527,12.688 L101.63527,12.7378 C101.607132,13.0719401 101.721251,13.4024478 101.949561,13.6480407 C102.177871,13.8936336 102.499188,14.0315239 102.83449,14.0278 C103.269262,14.0799947 103.692483,13.864333 103.90578,13.4819 L104.76125,13.48193 Z M101.63525,12.03076 L103.90966,12.03076 C103.932313,11.7251604 103.824858,11.4242051 103.613777,11.2020591 C103.402695,10.9799131 103.107617,10.8572362 102.80126,10.86426 C102.490752,10.8603589 102.191828,10.9820212 101.972296,11.2016489 C101.752765,11.4212765 101.631233,11.7202537 101.63527,12.03076 L101.63525,12.03076 Z" id="Download-on-the" fill="#FFFFFF"></path>
                        <path d="M24.76888,20.30068 C24.790737,18.6042091 25.6801229,17.0371861 27.12544,16.14862 C26.2095126,14.8405128 24.730392,14.0408784 23.13428,13.99094 C21.45504,13.81468 19.82709,14.99577 18.97138,14.99577 C18.09911,14.99577 16.78161,14.00844 15.36288,14.03763 C13.4962013,14.0979384 11.7981372,15.1335255 10.88996,16.7655 C8.95596,20.11392 10.39855,25.03497 12.25116,27.74158 C13.17806,29.06693 14.26134,30.54738 15.67879,30.49488 C17.06585,30.43735 17.58389,29.6104 19.25819,29.6104 C20.91695,29.6104 21.40298,30.49488 22.84919,30.4615 C24.33757,30.43734 25.27532,29.13026 26.1697,27.79236 C26.8356761,26.8479997 27.3481437,25.8042759 27.68812,24.69985 C25.9203766,23.9521813 24.7709432,22.2200343 24.76888,20.30068 L24.76888,20.30068 Z M22.03725,12.21089 C22.8487766,11.2366819 23.248585,9.98450245 23.15177,8.72027 C21.9119378,8.85049049 20.7666802,9.44304968 19.94419,10.37988 C19.1320187,11.304189 18.7205746,12.5134327 18.80048,13.74127 C20.0569368,13.7542068 21.2499161,13.1901532 22.03725,12.21089 L22.03725,12.21089 Z" id="Icon" fill="#FFFFFF"></path>
                    </g>
                </g>
            </g>
        </g>
    </g>
</svg>