<?xml version="1.0" encoding="UTF-8"?>
<svg width="82px" height="17px" viewBox="0 0 82 17" version="1.1" xmlns="http://www.w3.org/2000/svg" xmlns:xlink="http://www.w3.org/1999/xlink">
    <!-- Generator: Sketch 59.1 (86144) - https://sketch.com -->
    <title>Binance Coin</title>
    <desc>Created with Sketch.</desc>
    <g id="页面-1" stroke="none" stroke-width="1" fill="none" fill-rule="evenodd">
        <g id="桌面端-HD备份" transform="translate(-699.000000, -385.000000)" fill="#F9B800" fill-rule="nonzero">
            <g id="buy" transform="translate(1.000000, 373.000000)">
                <g id="Binance-Coin" transform="translate(698.000000, 12.000000)">
                    <g id="形状">
                        <path d="M1.82041045,10.0119367 L3.64069257,8.19159037 L1.82034628,6.37117991 L0,8.19165453 L1.82041045,10.0119367 Z M14.5628344,10.0119367 L16.3831807,8.19159037 L14.5627703,6.37117991 L12.7424882,8.19159037 L14.5628344,10.0119367 Z M8.19159037,10.0119367 L10.0120008,8.19159037 L8.19159037,6.37117991 L6.37117991,8.19159037 L8.19159037,10.0119367 Z"></path>
                        <path d="M13.1975587,5.00596833 L11.3772124,6.82637878 L8.1915262,3.64069257 L5.00596833,6.82637878 L3.18562204,5.00596833 L8.19159037,3.55271368e-15 L13.1975587,5.00596833 Z M3.18562204,11.3772124 L5.00603249,9.55680195 L8.19165453,12.7424882 L11.3772124,9.55680195 L13.1976229,11.3772124 L8.19159037,16.3831807 L3.18562204,11.3772124 Z"></path>
                    </g>
                    <g id="BINANCE" transform="translate(20.160000, 3.733333)">
                        <path d="M0.0806431348,0.0985935654 L4.02304772,0.0985935654 C5.00864887,0.0985935654 5.73142304,0.361420538 6.25707699,0.82136774 C6.65131745,1.2156082 6.84843768,1.6755554 6.84843768,2.26691609 C6.84843768,2.52974306 6.84843768,2.72686329 6.78273093,2.92398352 C6.71702419,3.12110375 6.5856107,3.31822398 6.45419722,3.44963746 C6.32278373,3.58105095 6.25707699,3.71246444 6.1256635,3.84387792 C5.99425002,3.97529141 5.86283653,4.04099815 5.73142304,4.1067049 C6.19137025,4.30382513 6.5856107,4.5666521 6.91414442,4.82947907 C7.17697139,5.15801279 7.30838488,5.55225324 7.30838488,6.14361393 C7.30838488,6.53785439 7.24267814,6.86638811 7.11126465,7.12921508 C6.97985116,7.39204205 6.78273093,7.65486902 6.45419722,7.85198925 C6.19137025,8.04910948 5.86283653,8.18052297 5.46859607,8.31193646 C5.07435561,8.44334994 4.61440841,8.44334994 4.15446121,8.44334994 L0.0806431348,8.44334994 L0.0806431348,0.0985935654 L0.0806431348,0.0985935654 Z M3.62880726,3.51534421 C4.02304772,3.51534421 4.35158144,3.44963746 4.61440841,3.31822398 C4.87723538,3.18681049 4.94294213,2.92398352 4.94294213,2.66115655 C4.94294213,2.39832957 4.81152864,2.1355026 4.61440841,2.00408912 C4.41728818,1.87267563 4.08875447,1.80696889 3.69451401,1.80696889 L1.92043194,1.80696889 L1.92043194,3.58105095 L3.62880726,3.58105095 L3.62880726,3.51534421 Z M4.08875447,6.93209485 C4.48299492,6.93209485 4.81152864,6.86638811 5.07435561,6.73497462 C5.27147584,6.60356113 5.40288933,6.34073416 5.40288933,6.01220045 C5.40288933,5.74937347 5.27147584,5.4865465 5.07435561,5.35513302 C4.87723538,5.15801279 4.48299492,5.09230604 4.02304772,5.09230604 L1.92043194,5.09230604 L1.92043194,6.93209485 L4.08875447,6.93209485 Z M9.60812089,0.0985935654 L11.4479097,0.0985935654 L11.4479097,8.50905669 L9.60812089,8.50905669 L9.60812089,0.0985935654 Z M14.2732996,0.0985935654 L15.981675,0.0985935654 L19.9240796,5.28942627 L19.9240796,0.0985935654 L21.7638684,0.0985935654 L21.7638684,8.50905669 L20.1869065,8.50905669 L16.1130885,3.12110375 L16.1130885,8.50905669 L14.2732996,8.50905669 L14.2732996,0.0985935654 L14.2732996,0.0985935654 Z M27.4146483,0.0328868222 L29.1230236,0.0328868222 L32.7368945,8.57476343 L30.7656922,8.57476343 L29.9772113,6.66926788 L26.4290471,6.66926788 L25.6405662,8.57476343 L23.7350707,8.57476343 L27.4146483,0.0328868222 L27.4146483,0.0328868222 Z M29.3201438,5.0265993 L28.2031292,2.26691609 L27.0861146,5.0265993 L29.3201438,5.0265993 L29.3201438,5.0265993 Z M34.7080968,0.0985935654 L36.4164721,0.0985935654 L40.3588767,5.28942627 L40.3588767,0.0985935654 L42.1986655,0.0985935654 L42.1986655,8.50905669 L40.6217036,8.50905669 L36.5478856,3.12110375 L36.5478856,8.50905669 L34.7080968,8.50905669 L34.7080968,0.0985935654 L34.7080968,0.0985935654 Z M48.9007533,8.70617691 C48.2436858,8.70617691 47.7180319,8.57476343 47.192378,8.3776432 C46.666724,8.18052297 46.2067768,7.85198925 45.8125364,7.4577488 C45.4182959,7.06350834 45.1554689,6.60356113 44.8926419,6.07790719 C44.6955217,5.55225324 44.5641082,4.96089256 44.5641082,4.36953187 C44.5641082,3.77817118 44.6955217,3.18681049 44.8926419,2.66115655 C45.0897622,2.1355026 45.4182959,1.6755554 45.8125364,1.28131494 C46.2067768,0.887074483 46.666724,0.558540767 47.192378,0.361420538 C47.7180319,0.164300308 48.3093926,0.0328868222 48.96646,0.0328868222 C49.3607005,0.0328868222 49.6892342,0.0328868222 50.0177679,0.164300308 C50.3463016,0.230007052 50.6748353,0.295713795 50.8719556,0.427127281 C51.1347825,0.558540767 51.3976095,0.689954253 51.5947297,0.82136774 C51.79185,0.952781226 52.0546769,1.14990146 52.2517972,1.34702168 L51.0690758,2.72686329 C50.7405421,2.39832957 50.4120084,2.20120935 50.0834747,2.00408912 C49.7549409,1.80696889 49.3607005,1.74126214 48.9007533,1.74126214 C48.5722196,1.74126214 48.2436858,1.80696889 47.9151521,1.93838237 C47.5866184,2.06979586 47.3894982,2.26691609 47.1266712,2.52974306 C46.929551,2.79257003 46.7324308,3.05539701 46.6010173,3.38393072 C46.4696038,3.71246444 46.403897,4.04099815 46.403897,4.43523861 C46.403897,4.76377233 46.4696038,5.15801279 46.6010173,5.4865465 C46.7324308,5.81508022 46.8638442,6.07790719 47.1266712,6.34073416 C47.3237914,6.60356113 47.5866184,6.73497462 47.9151521,6.93209485 C48.2436858,7.12921508 48.5722196,7.12921508 48.9007533,7.12921508 C49.3607005,7.12921508 49.8206477,7.06350834 50.1491814,6.86638811 C50.4777151,6.66926788 50.8062488,6.47214765 51.1347825,6.14361393 L52.3175039,7.32633531 L51.6604365,7.98340274 C51.4633163,8.18052297 51.2004893,8.31193646 50.8719556,8.44334994 C50.6091286,8.57476343 50.2805949,8.64047017 49.9520612,8.77188366 C49.6892342,8.70617691 49.3607005,8.70617691 48.9007533,8.70617691 Z M54.5515332,0.0985935654 L60.9250873,0.0985935654 L60.9250873,1.74126214 L56.391322,1.74126214 L56.391322,3.44963746 L60.3994333,3.44963746 L60.3994333,5.09230604 L56.391322,5.09230604 L56.391322,6.86638811 L60.990794,6.86638811 L60.990794,8.50905669 L54.5515332,8.50905669 L54.5515332,0.0985935654 L54.5515332,0.0985935654 Z" id="形状"></path>
                    </g>
                </g>
            </g>
        </g>
    </g>
</svg>