<?xml version="1.0" encoding="UTF-8"?>
<svg width="20px" height="20px" viewBox="0 0 20 20" version="1.1" xmlns="http://www.w3.org/2000/svg" xmlns:xlink="http://www.w3.org/1999/xlink">
    <!-- Generator: Sketch 59.1 (86144) - https://sketch.com -->
    <title>blog</title>
    <desc>Created with Sketch.</desc>
    <g id="页面-1" stroke="none" stroke-width="1" fill="none" fill-rule="evenodd">
        <g id="桌面端-HD备份" transform="translate(-1126.000000, -1198.000000)" fill="#F5F5F5" fill-rule="nonzero">
            <g id="编组-15" transform="translate(0.000000, 1064.000000)">
                <g id="blog" transform="translate(1126.000000, 134.000000)">
                    <path d="M4.70431033,0.00655120305 C8.66899532,0.0103315157 12.6324209,0.000250682006 16.5971059,0.0103315157 C18.4006093,0.0506548504 19.9912692,1.68627011 19.984972,3.49073934 C20.0051229,7.82297761 20.0000256,12.156476 19.9975663,16.4887143 C19.9975663,18.3410674 18.3451944,20.0031449 16.4900543,19.9993646 C12.128649,19.9968444 7.76598415,20.004405 3.40457878,19.9955843 C1.59099988,19.9413998 0.00663719501,18.3095648 0.000340046044,16.4950148 C0.000340046044,12.4614212 -0.00343824334,8.42656753 0.0141937738,4.39297395 L0.0141936876,4.39297184 C-0.00501940586,3.92255919 0.00886872005,3.45137669 0.0557552644,2.98291523 C0.286230917,1.59428237 1.39830742,0.413562753 2.76856704,0.0897159711 C3.4008008,-0.0400747624 4.05948258,0.010329406 4.70431063,0.00654909336 L4.70431033,0.00655120305 Z M4.7030509,1.42038813 C2.99400467,1.4115674 1.44868431,2.89471005 1.38193453,4.60215125 C1.37311852,6.39779975 1.37815624,8.19596846 1.38193453,9.99287706 C1.42097685,11.6524343 2.85546739,13.1254961 4.512877,13.2162236 C5.88817433,13.2489863 7.2647311,13.2111832 8.64128786,13.2351252 C8.9599236,13.9143214 9.30122907,14.5834367 9.62868082,15.2588525 L9.7168409,15.4352671 C9.77981239,15.5524568 9.85537818,15.6595657 9.99643432,15.6923284 C10.2130562,15.650745 10.2785466,15.4327469 10.3692255,15.263893 C10.701715,14.5859569 11.0367233,13.910541 11.3654345,13.2313449 C12.7394724,13.2162236 14.1160292,13.2464661 15.4913265,13.2162236 C17.1449578,13.124236 18.5769295,11.6536944 18.6184907,9.99665737 C18.6259663,8.56391889 18.6197501,7.1299203 18.6235284,5.69592171 C18.6109341,5.0658696 18.683981,4.41565583 18.4723968,3.8070255 C18.0643416,2.44737306 16.7255677,1.42164823 15.2986337,1.42038813 C11.768452,1.41786792 8.23449204,1.41786792 4.7030509,1.42038813 Z M15.7923302,6.65486101 C15.7898114,6.58429517 15.7898114,6.4419034 15.7898114,6.37133756 C16.1336357,6.36881735 16.4787195,6.36881735 16.8238032,6.37133756 L16.8238032,9.29225912 C16.8200249,9.81772257 16.6348888,10.3822493 16.1966072,10.7048359 C15.8162594,10.9946599 15.3150063,11.0261625 14.8565739,11.0047407 L14.8565739,10.052102 C15.0996438,10.040761 15.3804967,10.052102 15.5706706,9.87316716 C15.7822548,9.66777017 15.7822548,9.35400422 15.8024057,9.07930151 C15.2872989,9.56948204 14.4208112,9.58334319 13.9031855,9.09190255 C13.1827917,8.41144628 13.2923621,7.07573581 14.1072132,6.51246923 C14.6059474,6.15964005 15.3817561,6.15964005 15.7923302,6.65486101 L15.7923302,6.65486101 Z M12.4460253,6.7430683 C13.1110042,7.36555978 13.0618864,8.58282045 12.3226011,9.12844557 C11.4535946,9.78621997 9.91583081,9.57200225 9.49392183,8.48957274 C9.13624377,7.6415226 9.62994025,6.56791382 10.5392486,6.34991579 C11.1828172,6.16846078 11.9472911,6.26674891 12.4460253,6.7430683 L12.4460253,6.7430683 Z M3.46377198,4.97136179 C3.80633688,4.98144262 4.14638293,4.97766231 4.4876884,4.98144262 C4.4750941,5.53210816 4.49398555,6.0827737 4.4750941,6.63343924 C4.97508773,6.12939755 5.85794802,6.15207943 6.3516445,6.6510807 C7.03551487,7.30885509 7.01158571,8.56013857 6.279857,9.17380932 C5.77986337,9.60728517 4.9146351,9.63248725 4.48139125,9.08686213 L4.4876884,9.39936798 C4.14008578,9.40188818 3.79248315,9.4056685 3.44488053,9.39180735 C3.46125312,7.91874553 3.42850794,6.4431635 3.46377198,4.97136179 Z M7.17279272,4.87055345 C7.48765017,4.88063428 7.8100642,4.94994001 8.06320958,5.14399606 C8.51282602,5.47162316 8.70174049,6.05631151 8.69166505,6.59563611 C8.68662733,7.53063343 8.69292448,8.46563076 8.68914619,9.39936798 C8.34658129,9.40314829 8.00527581,9.40314829 7.66397034,9.39936798 C7.64885718,8.46689086 7.68412122,7.52937333 7.64507889,6.59563611 C7.64759775,6.28691058 7.48387188,5.97818505 7.17279272,5.88997775 C7.16649557,5.54974962 7.17153329,5.21078159 7.17279272,4.87055345 L7.17279272,4.87055345 Z M4.85040418,7.25341051 C4.33151911,7.43738572 4.30633051,8.27661513 4.81136186,8.49713336 C5.22949255,8.72017181 5.80883025,8.37868357 5.7685285,7.89102324 C5.81386797,7.41722406 5.27735088,7.05305394 4.84914475,7.25341051 L4.85040418,7.25341051 Z M10.9347095,7.23576905 C10.3931547,7.38698155 10.3226266,8.23629179 10.8213608,8.48327222 C11.2369727,8.73277285 11.859131,8.39506492 11.8037161,7.89480355 C11.859131,7.44116604 11.3540996,7.07573581 10.9347095,7.23576905 L10.9347095,7.23576905 Z M14.9145077,7.22442811 C14.4044386,7.4008427 14.3565803,8.21613012 14.8351636,8.45807013 C15.2482566,8.69118941 15.850264,8.3887644 15.8275943,7.89102324 C15.8830092,7.41848416 15.3477515,7.02155133 14.9145077,7.22442811 Z" id="形状"></path>
                </g>
            </g>
        </g>
    </g>
</svg>