<?xml version="1.0" encoding="UTF-8"?>
<svg width="54px" height="17px" viewBox="0 0 54 17" version="1.1" xmlns="http://www.w3.org/2000/svg" xmlns:xlink="http://www.w3.org/1999/xlink">
    <!-- Generator: Sketch 59.1 (86144) - https://sketch.com -->
    <title>Gateio</title>
    <desc>Created with Sketch.</desc>
    <g id="页面-1" stroke="none" stroke-width="1" fill="none" fill-rule="evenodd">
        <g id="桌面端-HD备份" transform="translate(-821.000000, -385.000000)" fill="#DE5959" fill-rule="nonzero">
            <g id="buy" transform="translate(1.000000, 373.000000)">
                <g id="Gateio" transform="translate(820.000000, 12.000000)">
                    <g id="路径">
                        <polygon points="14.6318859 6.66494326 13.0816174 5.11467479 11.4800155 3.51307293 6.6444099 8.34867855 6.30560951 8.00987816 6.30560951 10.2890808 8.59507884 10.2890808 8.25627845 9.95028042 10.7100146 7.48627755 10.3301475 7.10641044 11.1001484 7.10641044 12.6093502 7.09614376 12.6093502 9.38561309 12.2602831 9.03654602 8.29734516 12.9892173 3.52333961 8.21521173 9.84761363 1.88067103 8.29734516 0.330402557 0.22773577 8.40001195 8.29734516 16.4696213 16.3669546 8.40001195"></polygon>
                    </g>
                    <g transform="translate(20.533333, 1.866667)" id="形状">
                        <path d="M23.6581652,7.85309264 L23.6581652,7.85309264 C23.4656429,7.84544164 23.2789675,7.92011199 23.1448313,8.05842621 L23.1448312,8.05842629 C23.0190247,8.19244414 22.9460727,8.36752911 22.9394976,8.55122686 L22.9394976,8.55122446 C22.9408646,8.84715224 23.1185918,9.11374621 23.3912275,9.22882525 L23.3912276,9.22882527 C23.65479,9.32755944 23.9517321,9.26335617 24.1509618,9.06455842 L24.1509618,9.06455839 C24.2946913,8.93253853 24.3765993,8.7463844 24.3768287,8.55122446 L24.3768287,8.55122476 C24.3702539,8.36752701 24.2973021,8.19244204 24.1714956,8.05842419 L24.1714956,8.05842422 C24.0373594,7.92011 23.850684,7.84543956 23.6581617,7.85309064 L23.6581652,7.85309264 Z M12.2416186,2.45281969 L11.7077513,2.45281969 L11.7077513,2.45281969 C11.4809459,2.4528197 11.2970841,2.63668146 11.2970841,2.86348683 C11.2970841,2.86348683 11.2970841,2.86348683 11.2970841,2.86348683 L11.2970841,3.15095383 L11.2970842,3.15095395 C10.8019296,2.604518 10.1041523,2.28532455 9.36694866,2.26801959 L9.36694859,2.26801958 C8.57914142,2.25529969 7.82656581,2.59395896 7.31361287,3.19202066 L7.31361293,3.19202058 C6.76934662,3.83080851 6.49016515,4.65365874 6.53334536,5.49175659 L6.53334526,5.49175924 C6.50247376,6.34143116 6.79612852,7.17100286 7.35467955,7.8120286 L7.35467969,7.81202877 C8.34085032,8.93818315 10.053228,9.05165802 11.1793784,8.0654882 C11.234312,8.0173832 11.2872788,7.96707767 11.3381498,7.91469515 L11.3381498,8.51016251 L11.3381498,8.51016259 C11.3381498,8.7936689 11.5679774,9.02349652 11.8514837,9.02349652 L12.6933514,9.02349652 L12.6933514,2.86348935 L12.6933514,2.86348935 C12.6933514,2.60266318 12.4819103,2.39122214 12.2210842,2.39122214 C12.2210842,2.39122214 12.2210842,2.39122214 12.2210842,2.39122214 L12.2416186,2.45281969 Z M10.886417,6.92909156 L10.886417,6.92909156 C10.5745189,7.29197413 10.1116598,7.48925919 9.63388223,7.46295885 L9.63388223,7.46295885 C9.16096131,7.47174925 8.70894271,7.26834192 8.40188079,6.9085582 L8.40188077,6.90855817 C8.07220488,6.51230969 7.90362201,6.00656227 7.92961355,5.49175652 L7.92961348,5.49175551 C7.89322845,4.95334441 8.07025976,4.42225233 8.42241405,4.01335379 L8.42241415,4.01335367 C8.72309589,3.65679713 9.16750231,3.45342666 9.63388223,3.45895302 L9.63388227,3.45895302 C10.1193237,3.4464987 10.5853988,3.64946729 10.9069504,4.01335367 L10.9069504,4.01335368 C11.5366387,4.85293939 11.5366387,6.00737126 10.9069504,6.84695698 L10.886417,6.92909156 Z M6.53334561,3.47948755 L6.53334561,2.86348683 L6.53334561,2.86348439 C6.53362763,2.63667942 6.34999484,2.45258865 6.12319147,2.45230792 C6.11617247,2.45229919 6.10915436,2.4524704 6.10214414,2.4528214 L5.50668079,2.4528214 L5.50668078,2.4528214 C5.28015935,2.44148097 5.08733508,2.61591962 5.07599361,2.84244105 C5.07564265,2.84945131 5.07547148,2.85646938 5.07548026,2.86348838 L5.07548026,3.13042203 L5.07548028,3.13042205 C4.59896603,2.57314994 3.89901917,2.25704452 3.16587806,2.26802104 L3.165878,2.26802104 C2.36232592,2.26633017 1.60360233,2.63810473 1.11254228,3.27415555 L1.11254244,3.27415533 C0.611091389,3.91823301 0.349708168,4.7169004 0.373341581,5.53282463 L0.37334145,5.5328284 C0.344051297,6.37246224 0.629677956,7.19272174 1.17414639,7.83256441 L1.17414633,7.83256434 C2.17260489,8.93257078 3.87374541,9.01488869 4.97375185,8.01643173 C5.03796912,7.95814267 5.09932977,7.89678202 5.15761884,7.83256474 L5.15761884,8.69496575 C5.15761884,9.9680339 4.64428491,10.5840346 3.59708369,10.5840346 L3.59708377,10.5840346 C3.10527377,10.678873 2.59832042,10.5252502 2.24188219,10.1733675 L2.24188214,10.1733674 C2.15634467,10.0636643 2.09352182,9.93801862 2.05708193,9.80376696 L2.05708194,9.80376699 C1.98655146,9.60419639 1.79645669,9.47195636 1.58481472,9.47523327 L1.05094743,9.47523327 L1.05094743,9.47523327 C0.835769874,9.46411197 0.652317963,9.62953223 0.641198669,9.84471018 C0.638678676,9.89346768 0.645332852,9.94226489 0.660815564,9.9885672 L0.660815597,9.98856734 C0.783380489,10.5211633 1.07953567,10.9978982 1.50268324,11.3437689 L1.5026835,11.3437691 C2.08562231,11.8030065 2.81476503,12.0363328 3.55601923,12.0008366 L3.55601934,12.0008366 C4.41961946,12.0475772 5.25783361,11.700209 5.83522199,11.0563021 L5.83522211,11.056302 C6.12892932,10.7145331 6.33349691,10.3053947 6.43068947,9.86536728 L6.43068947,9.29043327 L6.43068947,7.62723134 L6.43068949,7.62723138 C6.02232433,7.02191442 5.81406716,6.3037763 5.83522213,5.57389566 L5.83522207,5.57389389 C5.80982083,4.84347986 6.01845421,4.1240584 6.43068943,3.52055816 L6.53334561,3.47948755 Z M4.70587649,6.88802485 L4.70587643,6.88802492 C4.3956567,7.2831597 3.91418718,7.50478762 3.41227493,7.48349228 L3.41227491,7.48349228 C2.92324414,7.49822986 2.45703667,7.27658983 2.15974012,6.88802492 L2.15974008,6.88802487 C1.85916462,6.50207756 1.70625367,6.02150115 1.72853958,5.53282329 L1.72853953,5.532822 C1.70706581,5.03161559 1.85938995,4.53837387 2.15974003,4.13655371 L2.15974004,4.1365537 C2.45703618,3.74798879 2.92324405,3.52634804 3.41227483,3.54108634 L3.41227476,3.54108635 C3.87870682,3.5081182 4.33625579,3.68063617 4.66480955,4.01335356 L4.66480955,4.01335355 C4.99448543,4.40960203 5.1630683,4.91534945 5.13707676,5.4301552 L5.13707685,5.43015671 C5.1643528,5.92578062 5.01116967,6.4145066 4.70587634,6.80589164 L4.70587649,6.88802485 Z M18.2373589,2.45281969 L15.3010888,2.45281969 L15.3010888,0.645884252 L15.3010888,0.645884252 C15.3010888,0.419078884 15.117227,0.235216825 14.8904217,0.235216825 C14.8904217,0.235216825 14.8904217,0.235216825 14.8904217,0.235216825 L14.3154877,0.235216825 L14.3154876,0.235216825 C14.0851359,0.234955807 13.8952556,0.415793547 13.8842871,0.645884252 L13.8842871,2.45281969 L13.2888198,2.45281969 L13.2888198,3.76695455 L13.8842871,3.76695455 L13.8842871,9.02349411 L14.7466881,9.02349411 L14.7466882,9.02349411 C15.0755556,9.02368956 15.342316,8.75724814 15.3425085,8.42837956 C15.3425126,8.4214155 15.3423946,8.41445189 15.3421544,8.40749196 L15.3421544,3.76695323 L16.8000228,3.76695323 L16.8000227,3.7669535 C16.9053792,3.54226282 17.0438045,3.33462607 17.2106898,3.15095278 L17.2106897,3.15095287 C17.5033125,2.83343097 17.8702035,2.5935404 18.2784243,2.45281873 L18.2373589,2.45281969 Z M25.4445673,0.235217108 L25.4445673,0.235217107 C25.2034836,0.226394581 24.9707119,0.324008637 24.8080332,0.502150751 L24.8080332,0.502150772 C24.6287962,0.665799624 24.524828,0.896014652 24.5205662,1.13868485 L24.5205662,1.13868502 C24.5164525,1.38905482 24.6213633,1.62885075 24.8080332,1.79575245 L24.8080332,1.79575254 C24.9707124,1.97389465 25.2034836,2.07150871 25.4445673,2.06268618 L25.4445673,2.06268618 C25.6917347,2.07205212 25.9310274,1.97483991 26.1016347,1.79575254 L26.1016347,1.79575253 C26.2797772,1.6330734 26.3773909,1.40030213 26.3685683,1.15921846 L26.3685683,1.15921842 C26.3779342,0.912050941 26.2807221,0.672758324 26.1016347,0.50215099 L26.1016347,0.502151037 C25.9281511,0.327333161 25.6908192,0.230916617 25.4445673,0.235217393 L25.4445673,0.235217108 Z M25.7320343,3.13042026 L25.2187004,3.13042026 L25.2187004,3.13042026 C24.9578746,3.13017383 24.7462326,3.34141516 24.7459878,3.60224254 C24.7459878,3.60923836 24.7461302,3.61623349 24.7464344,3.62322269 L24.7464344,8.12002793 L24.7464344,8.12002793 C24.9675658,8.38059102 24.9675658,8.76293456 24.7464344,9.02349564 L24.7464344,9.2698961 L25.6499021,9.2698961 L25.6499021,9.2698961 C25.9255797,9.27011655 26.1522074,9.05255235 26.163236,8.77709536 L26.163236,3.56162262 L26.163236,3.56162261 C26.1528341,3.32792132 25.9657368,3.14082514 25.7320355,3.13042026 L25.7320343,3.13042026 Z M32.3643087,4.01335484 L32.3643087,4.01335482 C31.7490819,3.4020864 30.9110523,3.06835518 30.0440393,3.08935374 L30.0440393,3.08935375 C29.1832265,3.06918478 28.3518661,3.40321413 27.7443033,4.01335482 L27.7443031,4.01335508 C27.1191305,4.59691149 26.7687801,5.41688224 26.7792353,6.27202438 L26.7792352,6.2720275 C26.7579802,7.14913071 27.0997424,7.99610362 27.7237736,8.61283023 L27.7237735,8.61283008 C28.3264636,9.23258054 29.1592035,9.57459729 30.0235095,9.55736451 L30.0235096,9.55736452 C30.8963177,9.57686234 31.7401504,9.24377082 32.3643123,8.63336344 L32.3643125,8.63336325 C32.9668382,8.00825487 33.2796631,7.15915643 33.2267135,6.29256053 L33.2267136,6.29255996 C33.2697843,5.44578356 32.9571423,4.61951645 32.3643085,4.0133533 L32.3643087,4.01335484 Z M31.3787075,7.75042585 L31.3787075,7.75042587 C31.0359544,8.11889376 30.5463566,8.31473226 30.0440393,8.28429316 L30.0440392,8.28429316 C29.5497027,8.30302496 29.071123,8.10860062 28.7299044,7.75042588 L28.7299044,7.75042594 C28.0755641,6.91155809 28.0755641,5.73515714 28.7299043,4.89628929 L28.7299044,4.89628919 C29.4693499,4.18441534 30.639262,4.18441534 31.3787075,4.89628939 L31.3787074,4.89628932 C31.7207242,5.29475997 31.8970785,5.80912538 31.871508,6.33362433 L31.871508,6.33362477 C31.8917998,6.85114157 31.7157758,7.35720862 31.3787075,7.75042642 L31.3787075,7.75042585 Z"></path>
                        <path d="M18.8533596,7.48349221 L18.8533596,7.48349218 C18.550661,7.16073347 18.3818544,6.7350473 18.3810924,6.29255746 L22.4877638,6.29255746 L22.4877638,6.29255746 C22.6692081,6.29255747 22.8162975,6.14546804 22.8162975,5.96402375 C22.8162975,5.96402375 22.8162975,5.96402375 22.8162975,5.96402375 L22.8162976,5.96402321 C22.8767182,5.09870262 22.5967314,4.24400563 22.03603,3.58215377 L22.0360301,3.5821539 C21.5052188,3.01598267 20.7585866,2.7023998 19.9826944,2.7197529 L19.9826943,2.7197529 C19.200983,2.71554765 18.4543829,3.04405121 17.9293586,3.62322061 L17.9293588,3.62322047 C17.2295924,4.24529297 16.8204051,5.13061754 16.8000241,6.06668998 L16.800024,6.06669163 C16.7551551,6.92463305 17.0502607,7.76568257 17.6213583,8.40749436 L17.6213583,8.40749428 C18.0012643,8.81221397 18.4954817,9.09155586 19.0381599,9.20829522 L19.0381598,9.20829521 C19.2835623,9.23965554 19.531959,9.23965554 19.7773607,9.20829523 L22.6520307,9.20829523 L22.6520307,9.06456173 L22.6520307,9.06456174 C22.5284993,8.93069428 22.4621818,8.75384633 22.4672305,8.57176117 L22.4672305,8.57176217 C22.4693947,8.39711353 22.535088,8.22923048 22.6520299,8.09949495 L22.6520299,7.93522809 L19.8594933,7.93522809 L19.8594934,7.93522809 C19.441784,7.95308044 19.0370001,7.78816955 18.7506921,7.48349423 L18.8533596,7.48349221 Z M18.6685594,4.67042227 L18.6685593,4.67042246 C18.7161482,4.54070097 18.7781357,4.41672601 18.8533595,4.30082203 L19.2640267,4.0749551 L19.2640265,4.07495512 C19.4276978,4.05517159 19.5931558,4.05517159 19.7568271,4.07495508 L19.756827,4.07495508 C20.4595571,4.03408127 21.0797808,4.53025821 21.194162,5.22482344 L18.3605586,5.22482344 L18.3605586,5.22482344 C18.4089131,5.059408 18.4779,4.90073808 18.5658918,4.75255622 L18.6685594,4.67042227 Z"></path>
                    </g>
                </g>
            </g>
        </g>
    </g>
</svg>