<?xml version="1.0" encoding="UTF-8"?>
<svg width="186px" height="42px" viewBox="0 0 186 42" version="1.1" xmlns="http://www.w3.org/2000/svg" xmlns:xlink="http://www.w3.org/1999/xlink">
    <!-- Generator: Sketch 59.1 (86144) - https://sketch.com -->
    <title>Google Play Badge US</title>
    <desc>Created with Sketch.</desc>
    <defs>
        <linearGradient x1="61.0339412%" y1="4.9481245%" x2="26.5026568%" y2="71.9074222%" id="linearGradient-1">
            <stop stop-color="#00A0FF" offset="0%"></stop>
            <stop stop-color="#00A1FF" offset="1%"></stop>
            <stop stop-color="#00BEFF" offset="26%"></stop>
            <stop stop-color="#00D2FF" offset="51%"></stop>
            <stop stop-color="#00DFFF" offset="76%"></stop>
            <stop stop-color="#00E3FF" offset="100%"></stop>
        </linearGradient>
        <linearGradient x1="107.684729%" y1="50%" x2="-130.640394%" y2="50%" id="linearGradient-2">
            <stop stop-color="#FFE000" offset="0%"></stop>
            <stop stop-color="#FFBD00" offset="41%"></stop>
            <stop stop-color="#FFA500" offset="78%"></stop>
            <stop stop-color="#FF9C00" offset="100%"></stop>
        </linearGradient>
        <linearGradient x1="86.219293%" y1="30.9112842%" x2="-50.1497903%" y2="135.987548%" id="linearGradient-3">
            <stop stop-color="#FF3A44" offset="0%"></stop>
            <stop stop-color="#C31162" offset="100%"></stop>
        </linearGradient>
        <linearGradient x1="-18.7537448%" y1="-11.831554%" x2="42.1210306%" y2="35.0948125%" id="linearGradient-4">
            <stop stop-color="#32A071" offset="0%"></stop>
            <stop stop-color="#2DA771" offset="7%"></stop>
            <stop stop-color="#15CF74" offset="48%"></stop>
            <stop stop-color="#06E775" offset="80%"></stop>
            <stop stop-color="#00F076" offset="100%"></stop>
        </linearGradient>
    </defs>
    <g id="页面-1" stroke="none" stroke-width="1" fill="none" fill-rule="evenodd">
        <g id="桌面端-HD备份" transform="translate(-435.000000, -277.000000)">
            <g id="下载平台" transform="translate(435.000000, 277.000000)">
                <g id="Google-Play-Badge-US" transform="translate(1.000000, 1.000000)">
                    <rect id="矩形" stroke="#979797" fill-opacity="0.200229458" fill="#D8D8D8" x="0" y="0" width="184" height="40" rx="6"></rect>
                    <path d="M93.14,21.75 C90.795425,21.7610334 88.9026739,23.6686811 88.9099995,26.0132706 C88.9173678,28.3578601 90.8220372,30.2536083 93.1666353,30.2499531 C95.5112334,30.2462873 97.409974,28.344601 97.4099995,26 C97.426473,24.8643738 96.9812316,23.7707097 96.1762551,22.9695037 C95.3712787,22.1682976 94.2755364,21.7281956 93.14,21.75 L93.14,21.75 Z M93.14,28.58 C92.0832273,28.6539053 91.088673,28.0743135 90.6320213,27.1184371 C90.1753697,26.1625607 90.3494358,25.0246828 91.0709659,24.249038 C91.7924959,23.4733932 92.9148379,23.2176324 93.9011878,23.6040831 C94.8875378,23.9905338 95.5374189,24.9406494 95.54,26 C95.5725428,26.6626719 95.3360327,27.3103928 94.8841403,27.7961771 C94.432248,28.2819613 93.8032921,28.5646164 93.14,28.58 L93.14,28.58 Z M83.83,21.75 C81.4840995,21.7555198 79.5863275,23.6607469 79.5899999,26.006651 C79.5936829,28.3525551 81.4974192,30.2518225 83.8433255,30.2499883 C86.1892318,30.2481513 88.0899999,28.345907 88.0899999,26 C88.106473,24.8643738 87.6612316,23.7707097 86.8562551,22.9695037 C86.0512787,22.1682976 84.9555364,21.7281956 83.82,21.75 L83.83,21.75 Z M83.83,28.58 C82.7726757,28.658073 81.7752215,28.0813713 81.3153517,27.1260966 C80.8554819,26.1708219 81.0268227,25.0314615 81.7473134,24.2536934 C82.467804,23.4759253 83.5907575,23.2180976 84.5783538,23.6036927 C85.5659501,23.9892877 86.2171215,24.9398011 86.22,26 C86.2525428,26.6626719 86.0160327,27.3103928 85.5641403,27.7961771 C85.112248,28.2819613 84.4832921,28.5646164 83.82,28.58 L83.83,28.58 Z M72.74,23.06 L72.74,24.86 L77.06,24.86 C76.9922634,25.7078038 76.6398446,26.5077945 76.06,27.13 C75.1860229,28.0202246 73.9765432,28.499658 72.73,28.45 C70.0790332,28.45 67.93,26.3009668 67.93,23.65 C67.93,20.9990332 70.0790332,18.85 72.73,18.85 C73.9477957,18.8301388 75.123762,19.2940521 76,20.14 L77.27,18.87 C76.0749196,17.6598581 74.4407184,16.9852541 72.74,17 C70.3189608,16.905779 68.0403936,18.1436718 66.801854,20.2260571 C65.5633145,22.3084423 65.5633145,24.9015577 66.801854,26.9839429 C68.0403936,29.0663282 70.3189608,30.304221 72.74,30.21 C74.471765,30.2882543 76.1527407,29.6136762 77.35,28.36 C78.3976757,27.2089216 78.9570431,25.6957612 78.91,24.14 C78.9132269,23.7609882 78.8797372,23.3825548 78.81,23.01 L72.74,23.06 Z M118.05,24.46 C117.51608,22.8892101 116.067928,21.811053 114.41,21.7499923 C113.304364,21.7478383 112.247145,22.2034076 111.489379,23.0085336 C110.731614,23.8136596 110.340895,24.8965231 110.41,26 C110.385441,27.1292961 110.821164,28.2200283 111.617052,29.0215741 C112.41294,29.8231198 113.500558,30.2665588 114.63,30.2499923 C116.050858,30.257659 117.380643,29.5514455 118.17,28.37 L116.72,27.37 C116.279746,28.1039422 115.485856,28.552167 114.63,28.55 C113.743591,28.5837851 112.926641,28.0721998 112.57,27.26 L118.26,24.91 L118.05,24.46 Z M112.25,25.88 C112.209052,25.2551643 112.421326,24.640145 112.838967,24.1735911 C113.256608,23.7070373 113.84446,23.4282216 114.47,23.4 C115.12937,23.3565516 115.751066,23.7106826 116.05,24.3 L112.25,25.88 Z M107.63,30 L109.5,30 L109.5,17.5 L107.63,17.5 L107.63,30 Z M104.57,22.6999974 L104.5,22.6999974 C103.929962,22.0626768 103.115057,21.69888 102.26,21.6999974 C99.9901469,21.8100717 98.2063371,23.6824796 98.2063371,25.955 C98.2063371,28.2275204 99.9901469,30.0999283 102.26,30.21 C103.117829,30.2244237 103.938016,29.8582688 104.5,29.21 L104.56,29.21 L104.56,29.82 C104.56,31.45 103.69,32.32 102.29,32.32 C101.336303,32.2976774 100.490728,31.7010334 100.15,30.81 L98.52,31.49 C99.1476816,33.016811 100.639231,34.0098583 102.29,34.0000727 C104.48,34.0000727 106.29,32.71 106.29,29.57 L106.29,22 L104.57,22 L104.57,22.6999974 Z M102.43,28.58 C101.092888,28.4621598 100.067376,27.342295 100.067376,26 C100.067376,24.657705 101.092888,23.5378402 102.43,23.42 C103.07612,23.4531575 103.681486,23.7457702 104.10885,24.2314965 C104.536214,24.7172228 104.749373,25.3549169 104.7,26 C104.755135,26.6480494 104.542657,27.2904311 104.11197,27.7777877 C103.681283,28.2651443 103.06991,28.5550138 102.42,28.58 L102.43,28.58 Z M126.81,17.5 L122.34,17.5 L122.34,30 L124.21,30 L124.21,25.26 L126.82,25.26 C128.272684,25.3643638 129.661974,24.648509 130.42013,23.404973 C131.178286,22.161437 131.178286,20.598563 130.42013,19.355027 C129.661974,18.111491 128.272684,17.3956362 126.82,17.5 L126.81,17.5 Z M126.81,23.5 L124.2,23.5 L124.2,19.24 L126.85,19.24 C128.034651,19.24 128.995,20.2003492 128.995,21.385 C128.995,22.5696508 128.034651,23.53 126.85,23.53 L126.81,23.5 Z M138.34,21.7 C136.948713,21.6168389 135.640687,22.367088 135.01,23.61 L136.67,24.3 C137.004406,23.6836682 137.671125,23.3228556 138.37,23.38 C138.849528,23.3239946 139.331454,23.4629701 139.707528,23.7657102 C140.083603,24.0684503 140.322299,24.5095749 140.37,24.99 L140.37,25.12 C139.769393,24.8019991 139.099592,24.6371252 138.42,24.64 C136.63,24.64 134.82,25.64 134.82,27.45 C134.855688,28.2297088 135.20524,28.9618295 135.789131,29.4797974 C136.373022,29.9977652 137.141598,30.2575326 137.92,30.2 C138.879229,30.2688831 139.799569,29.8087132 140.32,29 L140.38,29 L140.38,30 L142.18,30 L142.18,25.19 C142.18,23 140.52,21.73 138.39,21.73 L138.34,21.7 Z M138.11,28.55 C137.5,28.55 136.65,28.24 136.65,27.49 C136.65,26.49 137.71,26.16 138.65,26.16 C139.244042,26.1453419 139.831131,26.2903874 140.35,26.58 C140.220696,27.699415 139.286524,28.5525405 138.16,28.58 L138.11,28.55 Z M148.74,22 L146.6,27.42 L146.54,27.42 L144.32,22 L142.32,22 L145.65,29.58 L143.75,33.79 L145.7,33.79 L150.82,22 L148.74,22 Z M131.93,30 L133.8,30 L133.8,17.5 L131.93,17.5 L131.93,30 Z" id="Google-Play" fill="#FFFFFF" fill-rule="nonzero"></path>
                    <path d="M72.42,10.24 C72.4543536,10.981231 72.1832676,11.7041269 71.67,12.24 C71.0964498,12.8358032 70.2964838,13.1594258 69.47,13.13 C68.2023403,13.1200788 67.0641482,12.3512162 66.5816918,11.1789127 C66.0992355,10.0066092 66.3665355,8.65932246 67.26,7.76 C67.840533,7.16732597 68.6405789,6.84151543 69.47,6.86 C69.8927576,6.85859143 70.3113359,6.94366832 70.7,7.11 C71.0618545,7.25595356 71.3839841,7.48555656 71.64,7.78 L71.11,8.31 C70.7053468,7.82867645 70.0978848,7.56568987 69.47,7.6 C68.8388494,7.59690387 68.2336793,7.85108766 67.794036,8.30393914 C67.3543927,8.75679062 67.1182283,9.36921739 67.14,10 C67.1266019,10.9531897 67.6879765,11.8208395 68.5629333,12.1992583 C69.43789,12.5776771 70.4545926,12.3925456 71.14,11.73 C71.4477095,11.3965366 71.625183,10.9635013 71.64,10.51 L69.47,10.51 L69.47,9.79 L72.38,9.79 C72.4066731,9.93851412 72.4200594,10.0891096 72.42,10.24 L72.42,10.24 Z M77,7.74 L74.3,7.74 L74.3,9.64 L76.76,9.64 L76.76,10.36 L74.3,10.36 L74.3,12.26 L77,12.26 L77,13 L73.5,13 L73.5,7 L77,7 L77,7.74 Z M80.28,13 L79.51,13 L79.51,7.74 L77.83,7.74 L77.83,7 L82,7 L82,7.74 L80.28,7.74 L80.28,13 Z M84.94,13 L84.94,7 L85.71,7 L85.71,13 L84.94,13 Z M89.13,13 L88.36,13 L88.36,7.74 L86.68,7.74 L86.68,7 L90.8,7 L90.8,7.74 L89.13,7.74 L89.13,13 Z M98.61,12.22 C97.3929898,13.4302279 95.4270102,13.4302279 94.21,12.22 C93.0302689,10.9712339 93.0302689,9.01876613 94.21,7.77 C94.7919984,7.18374669 95.5839158,6.85403297 96.41,6.85403297 C97.2360842,6.85403297 98.0280016,7.18374669 98.61,7.77 C99.7947655,9.01675984 99.7947655,10.9732402 98.61,12.22 L98.61,12.22 Z M94.78,11.72 C95.6813239,12.6175651 97.1386761,12.6175651 98.04,11.72 C98.9251983,10.7441711 98.9251983,9.25582886 98.04,8.28 C97.1386761,7.38243493 95.6813239,7.38243493 94.78,8.28 C93.8948017,9.25582886 93.8948017,10.7441711 94.78,11.72 L94.78,11.72 Z M100.58,13 L100.58,7 L101.52,7 L104.44,11.67 L104.44,7 L105.21,7 L105.21,13 L104.41,13 L101.36,8.11 L101.36,13 L100.58,13 Z" id="GET-IT-ON" stroke="#FFFFFF" stroke-width="0.2" fill="#FFFFFF" fill-rule="nonzero"></path>
                    <g id="Icon" transform="translate(34.000000, 7.000000)" fill-rule="nonzero">
                        <path d="M1.44,0.54 C1.11406496,0.931108335 0.94955365,1.43179492 0.98,1.94 L0.98,24.06 C0.94955365,24.5682051 1.11406496,25.0688917 1.44,25.46 L1.51,25.53 L13.9,13.15 L13.9,12.86 L1.51,0.47 L1.44,0.54 Z" id="Shape" fill="url(#linearGradient-1)"></path>
                        <path d="M18,17.28 L13.9,13.15 L13.9,12.86 L18,8.72 L18.09,8.77 L23,11.56 C24.4,12.35 24.4,13.65 23,14.45 L18.11,17.23 L18,17.28 Z" id="Shape" fill="url(#linearGradient-2)"></path>
                        <path d="M18.12,17.22 L13.9,13 L1.44,25.46 C2.02871773,25.9775224 2.90242896,26.0027256 3.52,25.52 L18.13,17.22" id="Shape" fill="url(#linearGradient-3)"></path>
                        <path d="M18.12,8.78 L3.51,0.48 C2.89242896,-0.0027256091 2.01871773,0.0224775995 1.43,0.54 L13.9,13 L18.12,8.78 Z" id="Shape" fill="url(#linearGradient-4)"></path>
                        <path d="M18,17.13 L3.51,25.38 C2.91703854,25.8233364 2.10296146,25.8233364 1.51,25.38 L1.44,25.45 L1.51,25.52 C2.10184579,25.9666792 2.91815421,25.9666792 3.51,25.52 L18.12,17.22 L18,17.13 Z" id="Shape" fill="#000000" opacity="0.2"></path>
                        <path d="M1.44,25.32 C1.11406496,24.9288917 0.94955365,24.4282051 0.98,23.92 L0.98,24.07 C0.94955365,24.5782051 1.11406496,25.0788917 1.44,25.47 L1.51,25.4 L1.44,25.32 Z M23,14.3 L18,17.13 L18.09,17.22 L23,14.44 C23.5670701,14.1736132 23.9484684,13.6243997 24,13 C23.8860295,13.5648379 23.516706,14.0449585 23,14.3 Z" id="Shape" fill="#000000" opacity="0.12"></path>
                        <path d="M3.51,0.62 L23,11.7 C23.516706,11.9550415 23.8860295,12.4351621 24,13 C23.9484684,12.3756003 23.5670701,11.8263868 23,11.56 L3.51,0.48 C2.11,-0.31 0.97,0.35 0.97,1.95 L0.97,2.1 C1,0.49 2.12,-0.17 3.51,0.62 L3.51,0.62 Z" id="Shape" fill="#FFFFFF" opacity="0.25"></path>
                    </g>
                </g>
            </g>
        </g>
    </g>
</svg>