<?xml version="1.0" encoding="UTF-8"?>
<svg width="20px" height="20px" viewBox="0 0 20 20" version="1.1" xmlns="http://www.w3.org/2000/svg" xmlns:xlink="http://www.w3.org/1999/xlink">
    <!-- Generator: Sketch 59.1 (86144) - https://sketch.com -->
    <title>icon_twitter </title>
    <desc>Created with Sketch.</desc>
    <g id="页面-1" stroke="none" stroke-width="1" fill="none" fill-rule="evenodd">
        <g id="桌面端-HD备份" transform="translate(-1030.000000, -1198.000000)" fill-rule="nonzero">
            <g id="编组-15" transform="translate(0.000000, 1064.000000)">
                <g id="icon_twitter-" transform="translate(1030.000000, 134.000000)">
                    <polygon id="路径" points="3.33332419 4.07407245 16.66666 4.07407245 16.66666 16.2962898 3.33332419 16.2962898"></polygon>
                    <path d="M13.532565,0.636594081 L13.8283357,0.752106488 C17.5675197,2.26839141 20.0036554,5.83850477 20.0000071,9.79654236 C20.0000071,15.1849063 15.5391775,19.5458002 10.0175109,19.5556083 C5.9666671,19.5653561 2.31500269,17.1795755 0.76500089,13.5227015 C-0.78499896,9.86580836 0.0641680434,5.66055693 2.9250034,2.86410924 C5.71054221,0.141252266 9.8707895,-0.727616704 13.532565,0.636594081 Z M12.2283382,5.43567379 L12.2283382,5.44545156 L12.2175049,5.44545156 L11.9074943,5.48455673 C11.7808278,5.51063083 11.6541609,5.54539622 11.5304569,5.58595583 L11.3474937,5.65077877 C10.6363659,5.95474006 10.1111602,6.56591681 9.92749396,7.30322323 C9.82749403,7.68455701 9.82749403,8.08544445 9.92749396,8.45700044 C9.64249362,8.45700044 9.35749439,8.42950041 9.08093212,8.37450042 L8.80749451,8.31033377 C7.79704822,8.08981789 6.84684891,7.66359214 6.01827362,7.06085631 L5.7466706,6.85344698 C5.54141353,6.69605513 5.35030466,6.52201824 5.17534297,6.33326185 L5.00583774,6.13967031 L4.88496108,6.01256509 L4.88496108,6.01256509 L4.77583739,5.87567014 C4.69783326,6.00893198 4.63151248,6.14825996 4.57751376,6.29215176 L4.50583697,6.51122498 C4.31666214,7.3022061 4.52468775,8.13397895 5.06583762,8.75033869 C5.16333759,8.86767202 5.30021282,8.95200552 5.4174005,9.04458901 L5.52583821,9.14145025 C5.44983499,9.15445204 5.37239237,9.15429033 5.29698592,9.14126503 L5.18583756,9.11211684 C5.00411586,9.08276877 4.82633714,9.03357217 4.65583889,8.96545039 L4.38583857,8.86767295 C4.35486842,9.72962517 4.80731758,10.5394305 5.56583799,10.9796754 C5.80583827,11.1556754 6.0858386,11.2632313 6.38583699,11.3023425 C6.225837,11.4392313 5.51583793,11.3805646 5.26583764,11.3512314 C5.51583793,12.0943415 6.10583667,12.671231 6.85666957,12.9254535 C7.03666978,12.9914535 7.222295,13.0299535 7.40932564,13.0450785 L7.59666844,13.0525646 C7.44090117,13.1802381 7.27348728,13.2934382 7.09661442,13.3907813 L6.91666977,13.4827873 C6.4466243,13.7336009 5.94112176,13.9148338 5.41666998,14.0205657 C5.26333647,14.0531583 5.10555851,14.0596768 4.94037371,14.0719896 L4.68667124,14.0987878 C4.41972172,14.1183271 4.15137375,14.1084878 3.88667227,14.0694544 L4.10667252,14.1965655 C4.33667279,14.3334543 4.56667306,14.450788 4.8166714,14.5485659 C5.29667195,14.7441217 5.78667057,14.9005663 6.28667115,15.0178998 C7.46667057,15.2623445 8.69749427,15.2232334 9.85749562,14.9005665 C12.478319,14.0987897 14.1383209,12.2214523 14.7691615,9.45433794 C14.8691614,8.93611512 14.9091615,8.39833862 14.8891614,7.87033801 L15.2891619,7.54767095 C15.5551013,7.32815958 15.7918156,7.07736418 15.994041,6.80121888 L16.1391611,6.58944945 C15.6877114,6.78450488 15.2091737,6.91301215 14.7191614,6.97078322 C14.8191613,6.92189428 14.9091613,6.85344995 14.9991618,6.77522744 C15.3791622,6.47211598 15.6591606,6.07122853 15.8091607,5.62145023 L15.4991604,5.78767227 C15.17446,5.95653011 14.8281896,6.08128889 14.4699422,6.15884711 L14.1991608,6.20811722 C13.6902384,5.67995046 12.9694485,5.39744492 12.2283382,5.43567379 Z" id="形状结合" fill="#F5F5F5"></path>
                </g>
            </g>
        </g>
    </g>
</svg>