<?xml version="1.0" encoding="UTF-8"?>
<svg width="20px" height="20px" viewBox="0 0 20 20" version="1.1" xmlns="http://www.w3.org/2000/svg" xmlns:xlink="http://www.w3.org/1999/xlink">
    <!-- Generator: Sketch 59.1 (86144) - https://sketch.com -->
    <title>icon_email</title>
    <desc>Created with Sketch.</desc>
    <g id="页面-1" stroke="none" stroke-width="1" fill="none" fill-rule="evenodd">
        <g id="桌面端-HD备份" transform="translate(-1190.000000, -1198.000000)" fill="#F5F5F5" fill-rule="nonzero">
            <g id="编组-15" transform="translate(0.000000, 1064.000000)">
                <g id="icon_email" transform="translate(1190.000000, 134.000000)">
                    <path d="M10.0000116,0 C4.48000521,0 0,4.48000521 0,10.0000116 C0,15.5200181 4.48000521,20.0000233 10.0000116,20.0000233 C15.5200181,20.0000233 20.0000233,15.5200181 20.0000233,10.0000116 C20.0000233,4.48000521 15.5200181,0 10.0000116,0 Z M4.6400054,6.00000698 L15.460018,6.00000698 C15.5600181,6.00000698 15.6600182,6.02000701 15.7400183,6.08000707 C15.6400182,6.06000705 15.5200181,6.08000707 15.4200179,6.16000717 L10.4800122,10.6000123 L10.4600122,10.6200124 C10.3600121,10.7400125 10.2000119,10.8000126 10.0400117,10.8000126 C9.8800115,10.8000126 9.74001133,10.7400125 9.62001119,10.6200124 L8.54000994,9.64001122 L4.66000542,6.16000717 C4.58000533,6.08000707 4.46000519,6.06000705 4.34000505,6.08000707 C4.44000517,6.02000701 4.52000526,6.00000698 4.6400054,6.00000698 L4.6400054,6.00000698 Z M4.12000479,13.740016 C4.0400047,13.6400159 4.00000465,13.5200157 4.00000465,13.3800156 L4.00000465,6.64000773 C4.00000465,6.56000763 4.02000468,6.48000754 4.0400047,6.42000747 C4.0400047,6.54000761 4.08000475,6.64000773 4.16000484,6.72000782 L7.74000901,9.94001157 L4.20000489,13.6000158 C4.16000484,13.6400159 4.14000482,13.6800159 4.12000479,13.740016 L4.12000479,13.740016 Z M4.84000563,14.0000163 L8.30000966,10.4200121 L9.10001059,11.140013 C9.36001089,11.4000121 9.68001126,11.5400134 10.0400117,11.5400134 C10.4000121,11.5400134 10.7400125,11.4000121 10.9800128,11.140013 L11.8000137,10.4000121 L15.2800178,14.0000163 L4.84000563,14.0000163 L4.84000563,14.0000163 Z M16.0800187,13.3600155 C16.0800187,13.4800157 16.0400187,13.5800158 16.0000186,13.6600159 C15.9800186,13.6200158 15.9600186,13.6000158 15.9400185,13.5800158 L12.3600144,9.90000745 L15.9000185,6.7000078 C15.9800186,6.6200077 16.0200186,6.50000756 16.0200186,6.40000745 C16.0400187,6.48000754 16.0600187,6.54000761 16.0600187,6.6200077 L16.0600187,13.3600155 L16.0800187,13.3600155 Z" id="形状"></path>
                </g>
            </g>
        </g>
    </g>
</svg>