<?xml version="1.0" encoding="UTF-8"?>
<svg width="20px" height="20px" viewBox="0 0 20 20" version="1.1" xmlns="http://www.w3.org/2000/svg" xmlns:xlink="http://www.w3.org/1999/xlink">
    <!-- Generator: Sketch 59.1 (86144) - https://sketch.com -->
    <title>kakao</title>
    <desc>Created with Sketch.</desc>
    <g id="页面-1" stroke="none" stroke-width="1" fill="none" fill-rule="evenodd">
        <g id="桌面端-HD备份" transform="translate(-1158.000000, -1198.000000)" fill-rule="nonzero">
            <g id="编组-15" transform="translate(0.000000, 1064.000000)">
                <g id="kakao" transform="translate(1158.000000, 134.000000)">
                    <path d="M1.81818124,0 L18.1818188,0 C19.3939403,0 20,0.606059702 20,1.81818124 L20,18.1818188 C20,19.3939403 19.3939403,20 18.1818188,20 L1.81818124,20 C0.606059702,20 0,19.3939403 0,18.1818188 L0,1.81818124 C0,0.606059702 0.606059702,0 1.81818124,0 Z" id="路径" fill="#F5F5F5"></path>
                    <path d="M10.0000251,3.01587707 C14.3389122,3.01587707 17.8571771,5.85406861 17.8571771,9.35485952 C17.8571771,12.8556504 14.3389122,15.6929621 10.0000251,15.6929621 C9.52335786,15.6929621 9.05804054,15.6589145 8.60407108,15.5934382 C8.15097531,15.9199458 5.53191851,17.8030439 5.28485404,17.8379646 C5.28485404,17.8379646 5.18358415,17.8781233 5.0962824,17.8266154 C5.01072681,17.7742344 5.02644111,17.6380438 5.02644111,17.6380438 C5.05263162,17.4573293 5.70564893,15.1490658 5.82612527,14.7247796 C3.61389297,13.6038259 2.14286019,11.6177261 2.14286019,9.35398651 C2.14286019,5.85319561 5.66112507,3.01587707 10.0000122,3.01587707 Z M6.81612641,7.46128453 L4.49564752,7.46128453 C4.25032985,7.46128453 4.05039476,7.66469883 4.05039476,7.915254 C4.04846508,8.1630387 4.24700549,8.36586958 4.49477382,8.36922346 L4.49477382,8.36922346 L5.2019175,8.36922346 L5.2019175,11.1244648 C5.20527111,11.3719565 5.40838872,11.5699963 5.65588696,11.567116 L5.65588696,11.567116 L5.73718534,11.5599835 C5.94826146,11.5224994 6.10898273,11.3417496 6.10898273,11.1244648 L6.10898273,11.1244648 L6.10898273,8.36922346 L6.81612641,8.36922346 C7.06144409,8.36922346 7.26136503,8.16493751 7.26136503,7.915254 C7.26136503,7.6646974 7.06144348,7.46128453 6.81612641,7.46128453 L6.81612641,7.46128453 Z M8.33779485,7.46041963 C8.04271583,7.46740309 7.8104934,7.69613419 7.73366785,7.9187535 L7.73366785,7.9187535 L6.64938087,10.8381152 C6.51231654,11.2754966 6.6319206,11.4378771 6.75676195,11.4972422 C6.84695428,11.5393672 6.94531273,11.5611253 7.04485752,11.5609871 L7.04485752,11.5609871 L7.13554218,11.5545839 C7.27952938,11.5334826 7.38562517,11.4614486 7.42200082,11.3566866 L7.42200082,11.3566866 L7.64723917,10.7551786 L9.02922423,10.7551786 L9.25358889,11.3558149 C9.29723905,11.4824031 9.44128745,11.5609871 9.63073218,11.5609871 C9.7302709,11.5610826 9.82861707,11.5393273 9.91882781,11.4972565 L9.91882781,11.4972565 L9.95589518,11.4762074 C10.0651803,11.402814 10.1503518,11.2324699 10.0262088,10.8372558 L10.0262088,10.8372558 L8.94192186,7.9187535 C8.86596939,7.69613419 8.63374758,7.46740376 8.33779485,7.46041963 Z M13.2738255,7.46129476 C13.024142,7.46129476 12.8198346,7.66819977 12.8198346,7.92399303 L12.8198346,7.92399303 L12.8198346,11.0974026 C12.8174334,11.3506832 13.020549,11.5580969 13.2738255,11.5609812 L13.2738255,11.5609812 L13.356179,11.5526639 C13.5696998,11.5114443 13.7299485,11.3225475 13.7277942,11.0974092 L13.7277942,11.0974092 L13.7277942,10.0847094 L13.8849372,9.92494727 L14.9473981,11.3654251 L14.9473981,11.3654251 L14.9550991,11.3756972 C15.1059994,11.571069 15.3867097,11.6071198 15.5820814,11.4562189 L15.5820814,11.4562189 L15.6500745,11.3918954 C15.7907206,11.2292594 15.8043849,10.9857151 15.6711291,10.8066944 L15.6711291,10.8066944 L14.5554136,9.29375679 L15.5881932,8.23740567 C15.6602476,8.16197292 15.6967607,8.05941867 15.6885902,7.95542189 L15.6885902,7.95542189 L15.6755325,7.87372259 C15.6552879,7.79383951 15.6138911,7.72030424 15.5550186,7.66121432 L15.5550186,7.66121432 L15.4865547,7.60296767 C15.4135895,7.55214169 15.3284708,7.52415058 15.2433516,7.52415058 C15.1490525,7.52303831 15.058332,7.56020857 14.9919227,7.62716664 L14.9919227,7.62716664 L13.727795,8.92097764 L13.727795,7.92399303 C13.727795,7.66819977 13.523509,7.46129476 13.2738255,7.46129476 Z M10.7555531,7.43285681 C10.5000106,7.44856089 10.3055848,7.66845065 10.3212899,7.92399224 L10.3212899,7.92399224 L10.3212899,11.0738305 C10.3241668,11.310852 10.5181484,11.5009311 10.7551786,11.4990289 L10.7551786,11.4990289 L12.2096254,11.4990289 C12.4469949,11.5014307 12.6415111,11.3112098 12.6443878,11.0738461 L12.6443878,11.0738461 L12.6373821,10.9976441 C12.6005644,10.7997503 12.4230289,10.648686 12.2096254,10.648686 L12.2096254,10.648686 L11.2466885,10.648686 L11.2466885,7.92399347 C11.2478525,7.90505344 11.2478525,7.88605992 11.2466885,7.86711997 C11.2309844,7.61157756 11.0110946,7.41715174 10.7555531,7.43285681 Z M8.33779485,8.61716162 L8.79089062,9.93367041 L7.88557278,9.93367041 L8.33779485,8.61716162 Z" id="形状结合" fill="#000000"></path>
                </g>
            </g>
        </g>
    </g>
</svg>