<?xml version="1.0" encoding="UTF-8"?>
<svg width="20px" height="20px" viewBox="0 0 20 20" version="1.1" xmlns="http://www.w3.org/2000/svg" xmlns:xlink="http://www.w3.org/1999/xlink">
    <!-- Generator: Sketch 59.1 (86144) - https://sketch.com -->
    <title>logo_telegram</title>
    <desc>Created with Sketch.</desc>
    <g id="页面-1" stroke="none" stroke-width="1" fill="none" fill-rule="evenodd">
        <g id="桌面端-HD备份" transform="translate(-998.000000, -1198.000000)" fill-rule="nonzero">
            <g id="编组-15" transform="translate(0.000000, 1064.000000)">
                <g id="logo_telegram" transform="translate(998.000000, 134.000000)">
                    <path d="M13.1950349,14.5228294 L14.8547888,6.80496886 C14.9377764,6.4730173 14.8547888,6.22405607 14.7718012,6.14106769 C14.6058258,5.9750923 14.4398496,5.9750923 14.1908884,6.0580801 L4.56431469,9.70952966 C4.31535151,9.79251725 4.23236313,9.95849284 4.1493767,10.0414793 C4.06638911,10.1244669 4.06638911,10.2074547 4.1493767,10.3734308 C4.2323643,10.4564184 4.31535209,10.5394062 4.48132631,10.622394 L6.97095811,11.3692835 L12.6970976,7.80082236 C12.863073,7.71783476 12.9460608,7.63484697 13.0290491,7.71783476 C13.1120367,7.71783476 13.0290491,7.80082236 12.9460615,7.88381015 L8.29875145,12.03319 L8.13277607,14.6058102 C8.29875145,14.6058102 8.46472762,14.5228226 8.63070243,14.356847 L9.79252995,13.1950195 L12.2821618,15.0207481 C12.7800881,15.1867235 13.1120377,15.1037357 13.1950261,14.5228218 L13.1950349,14.5228294 Z M19.9170368,9.95850768 C19.9170368,11.28631 19.6680717,12.6141162 19.0871589,13.8589224 C18.5892326,15.1037363 17.842345,16.1825774 16.9294806,17.0124612 C16.0166163,17.8423372 15.0207655,18.5892267 13.7759418,19.1701395 C12.5311279,19.6680659 11.28631,20.0000155 9.87552712,20.0000155 C8.46473641,20.0000155 7.21991856,19.7510523 5.97511242,19.1701395 C4.73029847,18.6722131 3.65145737,17.9253255 2.8215736,17.0124612 C1.99169763,16.0995969 1.32779647,15.0207597 0.829872059,13.8589224 C0.331945699,12.6141084 -3.90625455e-06,11.3692906 -3.90625455e-06,9.95850768 C-3.90625455e-06,8.54771698 0.248959274,7.30289912 0.829872059,6.05809299 C1.41078484,4.81327904 2.07468601,3.73443794 2.98755035,2.90455416 C3.90041469,2.0746782 4.89626546,1.32778865 6.0581008,0.829864247 C7.21992832,0.331937886 8.5477326,-1.17187636e-05 9.95851549,-1.17187636e-05 C11.3693062,-1.17187636e-05 12.6141241,0.248951462 13.8589302,0.829864247 C15.1037441,1.32779061 16.1825852,2.0746782 17.012469,2.98754254 C17.842345,3.90040688 18.5892345,4.89625765 19.1701473,6.14108136 C19.6680737,7.30290889 19.9170368,8.63071317 19.9170368,9.95850768 L19.9170368,9.95850768 Z" id="形状" fill="#F5F5F5"></path>
                    <path d="M8.1327829,14.5228294 C7.80083134,14.5228294 7.88381972,14.4398418 7.71784492,14.1908778 L6.88796895,11.3692925 L13.2780155,7.30290108" id="路径" fill="#8C8C8C"></path>
                </g>
            </g>
        </g>
    </g>
</svg>