<?xml version="1.0" encoding="UTF-8"?>
<svg width="113px" height="26px" viewBox="0 0 113 26" version="1.1" xmlns="http://www.w3.org/2000/svg" xmlns:xlink="http://www.w3.org/1999/xlink">
    <!-- Generator: Sketch 59.1 (86144) - https://sketch.com -->
    <title>logo_drep_w</title>
    <desc>Created with Sketch.</desc>
    <defs>
        <polygon id="path-1" points="0 25.894435 112.1365 25.894435 112.1365 3.5e-05 0 3.5e-05"></polygon>
    </defs>
    <g id="页面-1" stroke="none" stroke-width="1" fill="none" fill-rule="evenodd">
        <g id="桌面端-HD备份" transform="translate(-230.000000, -1100.000000)">
            <g id="编组-15" transform="translate(0.000000, 1064.000000)">
                <g id="logo_drep_w" transform="translate(230.000000, 36.000000)">
                    <path d="M101.23435,8.68658 L101.4062,8.65998 C101.3299,8.65998 101.2732,8.66033 101.24065,8.66033 L101.23435,8.68658 Z" id="Fill-1" fill="#FFFFFF"></path>
                    <mask id="mask-2" fill="white">
                        <use xlink:href="#path-1"></use>
                    </mask>
                    <g id="Clip-4"></g>
                    <path d="M41.13095,19.958085 L50.41365,19.958085 L50.41365,10.301235 L41.13095,10.301235 L41.13095,19.958085 Z M38.70405,22.472835 L38.70405,7.786135 L50.0136,7.786135 C51.898,7.786135 52.8409,8.765435 52.8409,10.723335 L52.8409,19.535635 C52.8409,21.494235 51.898,22.472835 50.0136,22.472835 L38.70405,22.472835 Z" id="Fill-3" fill="#FFFFFF" mask="url(#mask-2)"></path>
                    <path d="M60.24935,14.183435 L69.56145,14.183435 L69.56145,10.218635 L60.24935,10.218635 L60.24935,14.183435 Z M63.5852,16.598085 L60.17235,16.598085 L60.17235,22.472835 L57.93025,22.472835 L57.93025,7.786135 L69.2398,7.786135 C71.1242,7.786135 72.0671,8.765435 72.0671,10.723335 L72.0671,13.660885 C72.0671,15.619135 71.1396,16.598085 69.2839,16.598085 L66.3033,16.598085 L71.2957,22.472835 L68.5769,22.472835 L63.5852,16.598085 Z" id="Fill-5" fill="#FFFFFF" mask="url(#mask-2)"></path>
                    <polygon id="Fill-6" fill="#FFFFFF" mask="url(#mask-2)" points="80.23127 16.48675 80.23127 19.93495 91.93982 19.93495 91.93982 22.47315 77.80297 22.47315 77.80297 7.7861 91.93982 7.7861 91.93982 10.3243 80.23127 10.3243 80.23127 13.9748 91.93982 13.9748 91.93982 16.48675"></polygon>
                    <path d="M100.4276,14.291935 L109.7082,14.291935 L109.7082,10.183985 L100.4276,10.183985 L100.4276,14.291935 Z M100.4276,22.519035 L97.9993,22.519035 L97.9993,7.831635 L109.30885,7.831635 C111.19325,7.831635 112.13615,8.811635 112.13615,10.769185 L112.13615,13.706735 C112.13615,15.665335 111.19325,16.644285 109.30885,16.644285 L100.4276,16.644285 L100.4276,22.519035 Z" id="Fill-7" fill="#FFFFFF" mask="url(#mask-2)"></path>
                    <path d="M18.542405,1.71122 L16.676555,1.71122 L16.123205,4.07652 C16.123205,4.07652 16.529205,4.07302 17.213105,4.07302 C18.676455,4.07302 19.824455,4.36492 20.224855,4.51577 C23.552305,5.77017 25.941405,9.22152 25.069905,12.94657 C24.061905,17.25682 20.241305,20.72147 15.158255,21.63147 C14.439705,21.76027 13.460055,21.81592 12.861555,21.81592 L5.508405,21.81592 L8.274455,9.98942 L5.629155,9.98942 L2.309755,24.28867 C2.309755,24.28867 7.864605,24.15462 11.042955,24.15462 C11.628855,24.15462 14.776405,24.05242 16.633155,23.47562 C21.805455,21.86842 26.614455,17.73947 27.767355,12.81112 C29.172955,6.80092 25.114005,2.03112 18.542405,1.71122 L18.542405,1.71122 Z M11.168255,5.78487 L10.584455,8.28107 C10.584455,8.28107 11.135005,8.28667 16.165205,8.28667 C16.954805,8.28667 17.439205,8.28142 17.961055,8.41827 C19.675355,8.86732 19.912305,10.35762 19.912305,10.35762 C20.073305,11.35547 19.805905,12.24412 19.428955,12.90107 C18.376505,14.73297 16.068955,15.19007 16.068955,15.19007 L17.396155,19.24062 C20.214705,18.02367 22.500205,15.63422 23.144205,12.87937 C23.907555,9.61667 22.160355,6.90837 19.054455,6.02147 C18.804555,5.95007 17.904005,5.78487 17.213105,5.78487 L15.343405,5.78487 L11.168255,5.78487 Z M16.312905,13.20172 C17.004855,12.93012 17.537555,12.49437 17.679655,11.94662 C17.859555,11.11012 17.576055,10.63027 17.174255,10.35727 C16.854005,10.13992 16.478455,10.06712 16.182355,10.03527 C15.931055,10.00832 15.435805,10.01252 15.435805,10.01252 L10.179155,10.01252 L7.818055,20.10792 C7.818055,20.10792 10.558905,20.10442 12.366305,20.10442 C13.380605,20.10442 14.519155,20.08972 15.290205,19.90877 L13.743205,15.19007 L10.642555,15.19007 L11.046105,13.46387 L14.407855,13.46387 C15.213205,13.46387 16.003505,13.32352 16.312905,13.20172 L16.312905,13.20172 Z M15.540455,25.56162 C14.322805,25.79892 12.068805,25.89447 11.159855,25.89447 C5.498255,25.89447 -0.000245,25.88957 -0.000245,25.88957 L4.118555,8.28107 L8.674155,8.28107 L9.657305,4.07652 L14.212905,4.07652 L15.165955,0.00287 C15.165955,0.00287 16.198455,7e-05 17.373755,7e-05 C18.141305,7e-05 19.456955,0.04557 19.701255,0.06797 C26.893755,0.72387 31.341905,6.23532 29.772505,12.94657 C28.333655,19.09747 22.310505,24.24107 15.540455,25.56162 L15.540455,25.56162 Z" id="Fill-8" fill="#FFFFFF" mask="url(#mask-2)"></path>
                </g>
            </g>
        </g>
    </g>
</svg>