<?xml version="1.0" encoding="UTF-8"?>
<svg width="20px" height="20px" viewBox="0 0 20 20" version="1.1" xmlns="http://www.w3.org/2000/svg" xmlns:xlink="http://www.w3.org/1999/xlink">
    <!-- Generator: Sketch 59.1 (86144) - https://sketch.com -->
    <title>Reddit</title>
    <desc>Created with Sketch.</desc>
    <g id="页面-1" stroke="none" stroke-width="1" fill="none" fill-rule="evenodd">
        <g id="桌面端-HD备份" transform="translate(-1062.000000, -1198.000000)" fill="#F5F5F5" fill-rule="nonzero">
            <g id="编组-15" transform="translate(0.000000, 1064.000000)">
                <g id="Reddit" transform="translate(1062.000000, 134.000000)">
                    <path d="M9.69876129,0.00250000291 C4.68125545,0.00250000291 0,4.59250534 0,10.2550119 C0,14.7850172 3.01500351,18.6275217 6.98750813,19.9825233 C7.48875871,20.0775234 7.74750902,19.760023 7.74750902,19.4900227 C7.74750902,19.2437724 7.77500905,18.4375215 7.77250904,17.5812705 C4.99000581,18.2012712 4.42250515,16.3712691 4.42250515,16.3712691 C3.96750462,15.1862677 3.32125386,14.8712673 3.32125386,14.8712673 C2.41375281,14.2337666 3.39625395,14.2487666 3.39625395,14.2487666 C4.39875512,14.3200167 4.93000574,15.3037678 4.93000574,15.3037678 C5.82250678,16.8712696 7.27125846,16.4162691 7.84125912,16.1550188 C7.93125923,15.492518 8.19125953,15.0400175 8.47625986,14.7850172 C6.25500728,14.5262669 3.92125456,13.6475159 3.92125456,9.71751131 C3.92125456,8.59876001 4.31250502,7.68375894 4.95000576,6.96625811 C4.84625564,6.7062578 4.50500524,5.66625659 5.04750587,4.25250495 C5.04750587,4.25250495 5.88625685,3.97750463 7.79750907,5.30375617 L7.79750857,5.30375631 C8.61273999,5.07663105 9.4549812,4.96099615 10.3012615,4.96000591 C11.1512625,4.96375592 12.0075135,5.07750605 12.8050144,5.30375631 C14.7150166,3.97750477 15.5537676,4.25250509 15.5537676,4.25250509 C16.0962682,5.66500673 15.7562678,6.70750794 15.6525177,6.96500824 C16.2925185,7.68375908 16.6812689,8.59876015 16.6812689,9.71751145 C16.6812689,13.655016 14.3412662,14.522517 12.1150136,14.7750173 C12.473764,15.0925177 12.7937644,15.7175184 12.7937644,16.6737695 C12.7937644,18.0450211 12.7812644,19.1487724 12.7812644,19.4862728 C12.7812644,19.7600231 12.9612646,20.0787735 13.4687652,19.9787734 C17.4412698,18.6212718 20.0000228,14.7787673 20.0000228,10.2525121 C20.0000228,4.59000548 14.6912666,1.3980368e-07 9.69876078,1.3980368e-07 L9.69876078,0.00250014271 L9.69876129,0.00250000291 Z" id="路径"></path>
                </g>
            </g>
        </g>
    </g>
</svg>