<?xml version="1.0" encoding="UTF-8"?>
<svg width="20px" height="20px" viewBox="0 0 20 20" version="1.1" xmlns="http://www.w3.org/2000/svg" xmlns:xlink="http://www.w3.org/1999/xlink">
    <!-- Generator: Sketch 59.1 (86144) - https://sketch.com -->
    <title>Steemit</title>
    <desc>Created with Sketch.</desc>
    <g id="页面-1" stroke="none" stroke-width="1" fill="none" fill-rule="evenodd">
        <g id="桌面端-HD备份" transform="translate(-1094.000000, -1198.000000)" fill="#F5F5F5" fill-rule="nonzero">
            <g id="编组-15" transform="translate(0.000000, 1064.000000)">
                <g id="Steemit" transform="translate(1094.000000, 134.000000)">
                    <path d="M10.0000312,19.9988874 L10.000031,19.9988874 C7.34633654,20.0059944 4.80002498,18.9514654 2.92840171,17.0702152 L2.92840185,17.0702153 C1.04767114,15.1987815 -0.00646485073,12.652886 0.000840792701,9.99969927 L0.000840792701,9.99966883 C-0.00639290287,7.34628684 1.04818864,4.80026825 2.92953458,2.92915279 L2.92953519,2.92915218 C4.80088893,1.04818319 7.34674736,-0.00631998974 10.0000317,0.000499065743 L10.0000322,0.000499065743 C12.653297,-0.00664323355 15.1991984,1.04768709 17.0705482,2.92862483 L17.0705482,2.92862482 C18.9518238,4.80000981 20.0063719,7.34616902 19.9992235,9.99968773 L19.9992235,9.99966756 C20.0066282,12.6534597 18.9522964,15.2000056 17.0711145,17.0718633 L17.0711145,17.0718633 C15.1994541,18.9525276 12.6533359,20.0064566 10.0000516,19.9988874 L10.0000312,19.9988874 Z M9.61506392,5.00006152 L9.61506423,5.00006152 C9.17476099,4.99933307 8.73533274,5.03931485 8.30239864,5.1195374 L8.30239855,5.11953742 C7.36786231,5.30980366 6.52564453,5.81180385 5.91370437,6.54330666 L5.91370427,6.54330677 C5.263725,7.29773539 4.93861134,8.27867207 5.00933603,9.27196229 L5.00933589,9.27196019 C5.07505862,10.2625297 5.53895565,11.184312 6.29533738,11.8272952 L6.32200187,11.853404 C6.4886546,11.9861706 6.76974262,12.1711544 6.95639323,12.2939221 L6.96250383,12.2972552 C7.05582932,12.3578056 7.12304581,12.4016908 7.12915636,12.4083569 L7.12915634,12.4083569 C6.82518333,12.9994884 6.27670418,13.4270983 5.62928155,13.577702 L5.62928192,13.5777022 C6.72805859,14.197119 7.93455804,14.6020491 9.18453996,14.7709341 L9.18453949,14.770934 C9.48953008,14.8130604 9.7971281,14.8334804 10.1050113,14.8321113 C10.3527674,14.8321113 10.6155236,14.8203745 10.8866118,14.797043 L10.8866119,14.797043 C11.8684177,14.6774964 12.7811277,14.2300463 13.4769469,13.527149 L13.4769469,13.527149 C14.2063188,12.809906 14.6187334,11.8308736 14.6224053,10.8079271 L14.6224054,10.8079101 C14.6329676,9.75182095 14.2204811,8.73542719 13.4769334,7.98536772 L13.4769336,7.98536789 C13.0823862,7.58367992 12.6058525,7.27180065 12.0798284,7.07099964 L12.0798284,7.07099961 C12.3452037,6.50478996 12.8323606,6.07310196 13.4263827,5.87776579 L13.4263825,5.87776567 C12.2327541,5.31877869 10.9340358,5.01961428 9.61614366,5.00006152 L9.61506392,5.00006152 Z M9.9428143,13.9493522 L9.9428147,13.9493522 C9.70031246,13.9491624 9.45797819,13.9365544 9.21676502,13.9115777 L9.21676474,13.9115777 C8.62187538,13.838102 8.04138447,13.6757512 7.49469047,13.4299521 L7.49469047,13.4299521 C7.76043887,13.1820963 7.9681481,12.878594 8.10297247,12.5411385 L8.10297247,12.5411386 C8.17278564,12.3675731 8.16407488,12.1722885 8.07908553,12.0056282 L8.07908553,12.0056282 C7.54431733,10.8942831 7.77911252,9.56556673 8.66236941,8.70480401 L8.66236914,8.70480428 C9.21454556,8.16153802 9.96097026,7.86152791 10.7355356,7.87154159 L10.7355357,7.87154159 C10.8585853,7.87170074 10.9815341,7.87856219 11.1038389,7.89209533 L11.1038391,7.89209535 C11.7568945,7.97002669 12.3647839,8.26526571 12.8298059,8.73035804 L12.8298059,8.73035808 C13.3822382,9.29463608 13.685555,10.0567288 13.6719573,10.846298 L13.6719573,10.8462992 C13.6675653,11.6382396 13.3462753,12.3954514 12.7798098,12.9488993 L12.7798099,12.9488992 C12.1984948,13.4879076 11.4595428,13.8261307 10.6716629,13.9138183 L10.6716633,13.9138183 C10.4300595,13.9383615 10.1873483,13.9504136 9.9445023,13.9499405 L9.9428143,13.9493522 Z" id="形状"></path>
                </g>
            </g>
        </g>
    </g>
</svg>